<svg width="20" height="15" viewBox="0 0 20 15" fill="none" 
    xmlns="http://www.w3.org/2000/svg">
    <path fill-rule="evenodd" clip-rule="evenodd" d="M19.517 7.26577L13.759 13.1016C13.5982 13.2641 13.388 13.3462 13.1769 13.3462C12.9667 13.3462 12.7565 13.2641 12.5957 13.1016C12.2741 12.7767 12.2741 12.2482 12.5957 11.9224L17.7724 6.67699L12.5957 1.43076C12.2741 1.1058 12.2741 0.577328 12.5957 0.25237C12.9173 -0.0734258 13.4374 -0.0734258 13.759 0.25237L19.517 6.08738C19.8386 6.41317 19.8386 6.94081 19.517 7.26577ZM15.4039 7.26577L9.64593 13.1016C9.48848 13.2616 9.27826 13.3462 9.06385 13.3462C8.95833 13.3462 8.85112 13.3252 8.74895 13.2825C8.44241 13.1535 8.2724 12.8738 8.2724 12.5363V9.98688C5.8863 9.94751 4.094 10.4659 2.94743 11.5388C1.70204 12.7055 1.66184 14.1284 1.66016 14.1879C1.65179 14.636 1.29584 15.0003 0.854469 15.0095C0.848606 15.0095 0.842743 15.0095 0.837718 15.0095C0.403045 15.0095 0.0420729 14.6695 0.0169472 14.2281C-0.291261 8.9182 2.18445 6.2306 4.31594 4.91066C5.84945 3.96175 7.39049 3.58822 8.2724 3.43998V0.810996C8.2724 0.474313 8.44241 0.200444 8.74895 0.0714653C9.05632 -0.0575129 9.40975 0.0128389 9.64593 0.25237L15.4039 6.08738C15.7255 6.41317 15.7255 6.94081 15.4039 7.26577ZM9.88714 2.85371V4.17616C9.88714 4.22557 9.86704 4.26828 9.85866 4.31518C9.84945 4.36962 9.8461 4.42574 9.82683 4.47683C9.80757 4.52708 9.77575 4.56728 9.74727 4.6125C9.71879 4.65857 9.69618 4.70547 9.65933 4.74483C9.62332 4.78336 9.57893 4.80932 9.53705 4.84031C9.4935 4.87214 9.45414 4.90731 9.40472 4.92992C9.35615 4.95254 9.30255 4.95924 9.24895 4.9718C9.20288 4.98269 9.16184 5.0053 9.11327 5.00781C8.83856 5.02624 3.84777 5.41569 2.17608 10.0145C3.77742 8.7239 6.10489 8.16192 9.11327 8.34534C9.16184 8.34785 9.20288 8.37046 9.24811 8.38135C9.30171 8.39391 9.35699 8.40061 9.40556 8.42406C9.45414 8.44668 9.49183 8.48101 9.53454 8.512C9.57809 8.54383 9.62332 8.56979 9.66017 8.60915C9.69534 8.64768 9.71796 8.69458 9.74643 8.73897C9.77491 8.78503 9.80757 8.82691 9.82683 8.878C9.84694 8.92825 9.84945 8.98353 9.8595 9.0388C9.86704 9.0857 9.88714 9.12842 9.88714 9.17783V10.4994L13.6593 6.67699L9.88714 2.85371Z" fill="#E01E5A"/>
</svg>
