<svg width="20" height="15" viewBox="0 0 20 15" fill="none" 
    xmlns="http://www.w3.org/2000/svg">
    <path fill-rule="evenodd" clip-rule="evenodd" d="M19.5169 7.26577L13.759 13.1016C13.5982 13.2641 13.388 13.3462 13.1769 13.3462C12.9667 13.3462 12.7565 13.2641 12.5957 13.1016C12.2741 12.7767 12.2741 12.2482 12.5957 11.9224L17.7724 6.67699L12.5957 1.43076C12.2741 1.1058 12.2741 0.577328 12.5957 0.25237C12.9173 -0.0734258 13.4374 -0.0734258 13.759 0.25237L19.5169 6.08738C19.8386 6.41317 19.8386 6.94081 19.5169 7.26577ZM15.4039 7.26577L9.64592 13.1016C9.48846 13.2616 9.27824 13.3462 9.06384 13.3462C8.95831 13.3462 8.85111 13.3252 8.74893 13.2825C8.4424 13.1535 8.27238 12.8738 8.27238 12.5363V9.98688C5.88628 9.94751 4.09399 10.4659 2.94742 11.5388C1.70202 12.7055 1.66182 14.1284 1.66015 14.1879C1.65177 14.636 1.29583 15.0003 0.854453 15.0095C0.848591 15.0095 0.842728 15.0095 0.837703 15.0095C0.403029 15.0095 0.0420576 14.6695 0.016932 14.2281C-0.291276 8.9182 2.18444 6.2306 4.31593 4.91066C5.84943 3.96175 7.39047 3.58822 8.27238 3.43998V0.810996C8.27238 0.474313 8.4424 0.200444 8.74893 0.0714653C9.0563 -0.0575129 9.40973 0.0128389 9.64592 0.25237L15.4039 6.08738C15.7255 6.41317 15.7255 6.94081 15.4039 7.26577ZM9.88712 2.85371V4.17616C9.88712 4.22557 9.86702 4.26828 9.85865 4.31518C9.84943 4.36962 9.84608 4.42574 9.82682 4.47683C9.80756 4.52708 9.77573 4.56728 9.74725 4.6125C9.71878 4.65857 9.69617 4.70547 9.65932 4.74483C9.6233 4.78336 9.57891 4.80932 9.53704 4.84031C9.49349 4.87214 9.45412 4.90731 9.40471 4.92992C9.35613 4.95254 9.30253 4.95924 9.24893 4.9718C9.20287 4.98269 9.16183 5.0053 9.11325 5.00781C8.83854 5.02624 3.84775 5.41569 2.17606 10.0145C3.7774 8.7239 6.10487 8.16192 9.11325 8.34534C9.16183 8.34785 9.20287 8.37046 9.24809 8.38135C9.30169 8.39391 9.35697 8.40061 9.40555 8.42406C9.45412 8.44668 9.49181 8.48101 9.53452 8.512C9.57808 8.54383 9.6233 8.56979 9.66015 8.60915C9.69533 8.64768 9.71794 8.69458 9.74642 8.73897C9.77489 8.78503 9.80756 8.82691 9.82682 8.878C9.84692 8.92825 9.84943 8.98353 9.85948 9.0388C9.86702 9.0857 9.88712 9.12842 9.88712 9.17783V10.4994L13.6593 6.67699L9.88712 2.85371Z" fill="white"/>
</svg>
