<svg width="41" height="40" viewBox="0 0 41 40" fill="none" 
    xmlns="http://www.w3.org/2000/svg">
    <rect opacity="0.1" width="41" height="40" rx="10" fill="#014886"/>
    <g clip-path="url(#clip0)">
        <path fill-rule="evenodd" clip-rule="evenodd" d="M32.7855 13.3786L21.1798 26.7168C21.0289 26.8912 20.8125 26.9943 20.5828 27.0027C20.5727 27.0036 20.5618 27.0036 20.5517 27.0036C20.3329 27.0036 20.1215 26.9163 19.9656 26.762L13.247 20.0921C12.92 19.7676 12.9175 19.2402 13.242 18.9131C13.5648 18.5861 14.0931 18.5844 14.4193 18.9089L20.5073 24.9516L31.5302 12.2835C31.8304 11.9363 32.3578 11.8994 32.705 12.2021C33.0522 12.5048 33.0882 13.0315 32.7855 13.3786ZM20.7941 21.4171C20.6297 21.6066 20.3983 21.703 20.1652 21.703C19.9714 21.703 19.7769 21.6359 19.6193 21.4984C19.2721 21.1957 19.236 20.6691 19.5379 20.3219L26.5323 12.2835C26.8334 11.9363 27.36 11.8994 27.7072 12.2021C28.0543 12.5048 28.0904 13.0315 27.7885 13.3786L20.7941 21.4171ZM16.1459 26.7562C15.9833 26.9214 15.7686 27.0036 15.5539 27.0036C15.3426 27.0036 15.1304 26.9231 14.9678 26.762L8.24921 20.0921C7.92217 19.7676 7.91966 19.2402 8.24418 18.9131C8.56702 18.5861 9.09532 18.5844 9.42152 18.9089L16.1409 25.578C16.4671 25.9025 16.4696 26.43 16.1459 26.7562Z" fill="#014886"/>
    </g>
    <defs>
        <clipPath id="clip0">
            <rect width="25" height="15.0153" fill="white" transform="translate(8 12)"/>
        </clipPath>
    </defs>
</svg>
