<svg width="34" height="34" viewBox="0 0 34 34" fill="none" xmlns="http://www.w3.org/2000/svg">
<circle cx="17" cy="17" r="16.5" fill="#D1EBFF" stroke="#C2E4FF"/>
<path d="M13.3217 11.7063C13.3217 11.8954 13.167 12.05 12.978 12.05H12.8104V12.2176C12.8104 12.4067 12.6557 12.5614 12.4667 12.5614C12.2776 12.5614 12.1229 12.4067 12.1229 12.2176V12.05H11.9553C11.7663 12.05 11.6116 11.8954 11.6116 11.7063C11.6116 11.5172 11.7663 11.3625 11.9553 11.3625H12.1229V11.195C12.1229 11.0059 12.2776 10.8512 12.4667 10.8512C12.6557 10.8512 12.8104 11.0059 12.8104 11.195V11.3625H12.978C13.167 11.3625 13.3217 11.5172 13.3217 11.7063ZM24.8331 7.34067H21.1034C20.9143 7.34067 20.7596 7.49536 20.7596 7.68442C20.7596 7.87348 20.9143 8.02817 21.1034 8.02817H24.8331C25.0221 8.02817 25.1768 7.87348 25.1768 7.68442C25.1768 7.49536 25.0264 7.34067 24.8331 7.34067ZM17.0944 8.84028H14.628C14.4389 8.84028 14.2842 8.99496 14.2842 9.18403C14.2842 9.37309 14.4389 9.52778 14.628 9.52778H17.0944C17.2834 9.52778 17.4381 9.37309 17.4381 9.18403C17.4381 8.99496 17.2877 8.84028 17.0944 8.84028ZM17.0944 10.2582H14.628C14.4389 10.2582 14.2842 10.4129 14.2842 10.602C14.2842 10.7911 14.4389 10.9457 14.628 10.9457H17.0944C17.2834 10.9457 17.4381 10.7911 17.4381 10.602C17.4381 10.4129 17.2877 10.2582 17.0944 10.2582ZM8.99478 9.18832H8.31587V8.50942C8.31587 8.32036 8.16118 8.16567 7.97212 8.16567C7.78306 8.16567 7.62837 8.32036 7.62837 8.50942V9.18832H6.94946C6.7604 9.18832 6.60571 9.34301 6.60571 9.53207C6.60571 9.72114 6.7604 9.87582 6.94946 9.87582H7.62837V10.5547C7.62837 10.7438 7.78306 10.8985 7.97212 10.8985C8.16118 10.8985 8.31587 10.7438 8.31587 10.5547V9.87582H8.99478C9.18384 9.87582 9.33853 9.72114 9.33853 9.53207C9.33853 9.34301 9.18384 9.18832 8.99478 9.18832ZM11.2807 9.94887C10.6534 9.94887 10.1463 9.44184 10.1463 8.8145C10.1463 8.18715 10.6534 7.68012 11.2807 7.68012C11.9081 7.68012 12.4151 8.18715 12.4151 8.8145C12.4151 9.44184 11.9081 9.94887 11.2807 9.94887ZM11.7276 8.81879C11.7276 8.57387 11.5256 8.37192 11.2807 8.37192C11.0358 8.37192 10.8338 8.57387 10.8338 8.81879C10.8338 9.06371 11.0358 9.26567 11.2807 9.26567C11.5256 9.26567 11.7276 9.06371 11.7276 8.81879Z" fill="#272643"/>
<path d="M16.7767 13.7817V26.9086H13.4337V25.4778H11.5259V26.9086H8.18726V26.1524C8.18726 25.0051 9.11968 24.0727 10.2669 24.0727C11.4916 24.0727 12.4841 23.0801 12.4841 21.8555V16.6993C12.4841 14.9547 13.8978 13.5411 15.6423 13.5411H16.5404C16.6693 13.5453 16.7767 13.6485 16.7767 13.7817ZM25.5337 25.7485V12.7161C25.5337 12.0715 25.0095 11.5473 24.365 11.5473H22.0876C20.5966 11.5473 19.3849 12.759 19.3849 14.25V25.7485C19.3849 26.393 19.9091 26.9172 20.5537 26.9172H24.365C25.0095 26.9215 25.5337 26.3973 25.5337 25.7485Z" fill="url(#paint0_linear)"/>
<path d="M9.51489 15.2512C9.51489 15.0449 9.68247 14.8773 9.88872 14.8773H14.9676C15.1739 14.8773 15.3415 15.0449 15.3415 15.2512C15.3415 15.4574 15.1739 15.625 14.9676 15.625H9.89302C9.68247 15.625 9.51489 15.4574 9.51489 15.2512ZM9.89302 17.4254H14.9719C15.1782 17.4254 15.3458 17.2578 15.3458 17.0516C15.3458 16.8453 15.1782 16.6777 14.9719 16.6777H9.89302C9.68677 16.6777 9.51919 16.8453 9.51919 17.0516C9.51919 17.2578 9.68247 17.4254 9.89302 17.4254ZM9.89302 19.3762H14.9719C15.1782 19.3762 15.3458 19.2086 15.3458 19.0023C15.3458 18.7961 15.1782 18.6285 14.9719 18.6285H9.89302C9.68677 18.6285 9.51919 18.7961 9.51919 19.0023C9.51919 19.2086 9.68247 19.3762 9.89302 19.3762ZM9.89302 21.1766H14.9719C15.1782 21.1766 15.3458 21.009 15.3458 20.8027C15.3458 20.5965 15.1782 20.4289 14.9719 20.4289H9.89302C9.68677 20.4289 9.51919 20.5965 9.51919 20.8027C9.51919 21.009 9.68247 21.1766 9.89302 21.1766ZM14.9719 22.9769C15.1782 22.9769 15.3458 22.8094 15.3458 22.6031C15.3458 22.3969 15.1782 22.2293 14.9719 22.2293H9.89302C9.68677 22.2293 9.51919 22.3969 9.51919 22.6031C9.51919 22.8094 9.68677 22.9769 9.89302 22.9769H14.9719ZM27.1836 26.9215C27.1836 27.1105 27.029 27.2652 26.8399 27.2652H25.5336C25.3446 27.2652 25.1899 27.1105 25.1899 26.9215V9.8414H18.7016V10.009C18.7016 12.0371 18.1817 13.8762 17.1504 15.4832V26.5734H21.4301H24.5024C24.6915 26.5734 24.8461 26.7281 24.8461 26.9172C24.8461 27.1062 24.6915 27.2609 24.5024 27.2609H21.4301H16.8969C16.8583 27.2738 16.8196 27.2824 16.7766 27.2824H13.4336H11.5258H8.18716H7.00981C6.80356 27.2824 6.63599 27.1148 6.63599 26.9086C6.63599 26.7023 6.80356 26.5348 7.00981 26.5348H7.80903V13.7816C7.80903 13.4422 8.08403 13.1672 8.42349 13.1672H16.536C16.8754 13.1672 17.1504 13.4422 17.1504 13.7816V14.0609C17.7219 12.8277 18.0141 11.4699 18.0141 10.009V9.49765C18.0141 9.30859 18.1688 9.1539 18.3579 9.1539H25.5294C25.7184 9.1539 25.8731 9.30859 25.8731 9.49765V26.5734H26.8399C27.029 26.5777 27.1836 26.7281 27.1836 26.9215ZM8.56099 26.5305H11.152V25.4734C11.152 25.2672 11.3196 25.0996 11.5258 25.0996H13.4336C13.6399 25.0996 13.8075 25.2672 13.8075 25.4734V26.5305H16.334H16.3985V13.9191H8.56099V26.5305ZM13.0598 25.8516H11.8997V26.5305H13.0598V25.8516ZM24.5067 23.5012C24.3176 23.5012 24.1629 23.6559 24.1629 23.8449V24.5238H19.3848C19.1958 24.5238 19.0411 24.6785 19.0411 24.8676C19.0411 25.0566 19.1958 25.2113 19.3848 25.2113H24.5067C24.6958 25.2113 24.8504 25.0566 24.8504 24.8676V23.8449C24.8504 23.6559 24.6958 23.5012 24.5067 23.5012ZM24.5067 21.4516C24.3176 21.4516 24.1629 21.6062 24.1629 21.7953V22.4742H19.3848C19.1958 22.4742 19.0411 22.6289 19.0411 22.818C19.0411 23.007 19.1958 23.1617 19.3848 23.1617H24.5067C24.6958 23.1617 24.8504 23.007 24.8504 22.818V21.7953C24.8504 21.6062 24.6958 21.4516 24.5067 21.4516ZM24.5067 19.4019C24.3176 19.4019 24.1629 19.5566 24.1629 19.7457V20.4246H19.3848C19.1958 20.4246 19.0411 20.5793 19.0411 20.7684C19.0411 20.9574 19.1958 21.1121 19.3848 21.1121H24.5067C24.6958 21.1121 24.8504 20.9574 24.8504 20.7684V19.7457C24.8504 19.5566 24.6958 19.4019 24.5067 19.4019ZM24.5067 17.3523C24.3176 17.3523 24.1629 17.507 24.1629 17.6961V18.375H19.3848C19.1958 18.375 19.0411 18.5297 19.0411 18.7187C19.0411 18.9078 19.1958 19.0625 19.3848 19.0625H24.5067C24.6958 19.0625 24.8504 18.9078 24.8504 18.7187V17.6961C24.8504 17.507 24.6958 17.3523 24.5067 17.3523ZM24.5067 15.3027C24.3176 15.3027 24.1629 15.4574 24.1629 15.6465V16.3254H19.3848C19.1958 16.3254 19.0411 16.4801 19.0411 16.6691C19.0411 16.8582 19.1958 17.0129 19.3848 17.0129H24.5067C24.6958 17.0129 24.8504 16.8582 24.8504 16.6691V15.6465C24.8504 15.4574 24.6958 15.3027 24.5067 15.3027ZM24.5067 13.2531C24.3176 13.2531 24.1629 13.4078 24.1629 13.5969V14.2758H19.3848C19.1958 14.2758 19.0411 14.4305 19.0411 14.6195C19.0411 14.8086 19.1958 14.9633 19.3848 14.9633H24.5067C24.6958 14.9633 24.8504 14.8086 24.8504 14.6195V13.5969C24.8504 13.4078 24.6958 13.2531 24.5067 13.2531ZM24.5067 10.1809C24.3176 10.1809 24.1629 10.3355 24.1629 10.5246V12.2305H19.3848C19.1958 12.2305 19.0411 12.3852 19.0411 12.5742C19.0411 12.7633 19.1958 12.918 19.3848 12.918H24.5067C24.6958 12.918 24.8504 12.7633 24.8504 12.5742V10.5246C24.8504 10.3312 24.6958 10.1809 24.5067 10.1809Z" fill="#272643"/>
<defs>
<linearGradient id="paint0_linear" x1="16.8588" y1="26.5467" x2="16.8588" y2="11.4925" gradientUnits="userSpaceOnUse">
<stop stop-color="#ABDCFF"/>
<stop offset="1" stop-color="#0396FF"/>
</linearGradient>
</defs>
</svg>
