<svg width="41" height="40" viewBox="0 0 41 40" fill="none" 
    xmlns="http://www.w3.org/2000/svg">
    <rect opacity="0.1" width="41" height="40" rx="10" fill="#E01E5A" />
    <g clip-path="url(#clip0)">
        <path fill-rule="evenodd" clip-rule="evenodd" d="M27.4534 28.4545C26.825 28.4545 26.317 27.9455 26.317 27.3182C26.317 26.6909 26.825 26.1818 27.4534 26.1818C30.5943 26.1818 32 25.6114 32 25.0455V23.317C30.4045 23.9068 28.3943 23.9091 27.4534 23.9091C26.825 23.9091 26.317 23.4 26.317 22.7727C26.317 22.1455 26.825 21.6364 27.4534 21.6364C30.5943 21.6364 32 21.0659 32 20.5V18.7716C30.4045 19.3625 28.3943 19.3636 27.4534 19.3636C26.825 19.3636 26.317 18.8545 26.317 18.2273C26.317 17.6 26.825 17.0909 27.4534 17.0909C30.5943 17.0909 32 16.5205 32 15.9545V13.8045C29.5114 14.7705 25.792 14.8182 25.1807 14.8182C24.5705 14.8182 20.8511 14.7705 18.3625 13.8045V14.842C18.3625 15.4693 17.8545 15.9773 17.2261 15.9773C16.5977 15.9773 16.0898 15.4693 16.0898 14.842V11.4091C16.0898 8.09545 24.2511 8 25.1807 8C26.1114 8 34.2727 8.09545 34.2727 11.4091V20.5V25.0455C34.2727 28.4545 29.1398 28.4545 27.4534 28.4545ZM25.1807 10.2727C21.6148 10.2727 19.3216 10.9364 18.5568 11.4091C19.3216 11.8818 21.6148 12.5455 25.1807 12.5455C28.7466 12.5455 31.0398 11.8818 31.8057 11.4091C31.0409 10.9375 28.7477 10.2727 25.1807 10.2727ZM25.183 20.5V29.5909C25.183 32.9045 17.0216 33 16.0909 33C15.1614 33 7 32.9045 7 29.5909V20.5C7 17.1864 15.1614 17.0909 16.0909 17.0909C17.0216 17.0909 25.183 17.1864 25.183 20.5ZM9.27273 29.4455C9.75114 29.9114 12.1398 30.7273 16.0909 30.7273C20.0432 30.7273 22.4318 29.9114 22.9102 29.4443V27.4409C20.4216 28.4068 16.7023 28.4545 16.0909 28.4545C15.4807 28.4545 11.7614 28.4068 9.27273 27.4409V29.4455ZM9.27273 24.8977C9.74205 25.3625 12.1307 26.1818 16.0909 26.1818C20.0511 26.1818 22.4398 25.3625 22.9102 24.8977V22.8955C20.4216 23.8614 16.7023 23.9091 16.0909 23.9091C15.4807 23.9091 11.7614 23.8614 9.27273 22.8955V24.8977ZM16.0909 21.6364C19.6568 21.6364 21.95 20.9727 22.7159 20.5C21.95 20.0273 19.6568 19.3636 16.0909 19.3636C12.525 19.3636 10.2318 20.0273 9.46705 20.5C10.2318 20.9727 12.525 21.6364 16.0909 21.6364Z" fill="#E01E5A" />
    </g>
    <defs>
        <clipPath id="clip0">
            <rect width="27.2727" height="25" fill="white" transform="translate(7 8)" />
        </clipPath>
    </defs>
</svg>