<svg width="300" height="76" viewBox="0 0 300 76" fill="none" 
    xmlns="http://www.w3.org/2000/svg">
    <path fill-rule="evenodd" clip-rule="evenodd" d="M0 37.5C0 37.5903 0.000321093 37.6806 0.000955047 37.7707L0 37.7698V75H14.0625V37.6686L14.0631 37.6692C14.0627 37.6129 14.0625 37.5564 14.0625 37.5C14.0625 24.5558 24.5558 14.0625 37.5 14.0625C50.4442 14.0625 60.9375 24.5558 60.9375 37.5C60.9375 50.3324 50.6247 60.7561 37.8348 60.9352L37.8372 60.9375H26.3672V75H38.0396L38.0357 74.9962C58.4994 74.7097 75 58.0318 75 37.5C75 16.7893 58.2107 0 37.5 0C16.7893 0 0 16.7893 0 37.5ZM26.3675 37.8712L26.3672 37.793C26.3672 31.8063 31.2204 26.9531 37.207 26.9531C43.1937 26.9531 48.0469 31.8063 48.0469 37.793C48.0469 43.7279 43.2772 48.5489 37.3619 48.6317L37.363 48.6328H26.3672V37.871L26.3675 37.8712Z" fill="#182538"/>
    <path d="M26.3675 37.8712C26.3673 37.8452 26.3672 37.8191 26.3672 37.793C26.3672 31.8063 31.2204 26.9531 37.207 26.9531C43.1937 26.9531 48.0469 31.8063 48.0469 37.793C48.0469 43.7279 43.2772 48.5489 37.3619 48.6317L37.363 48.6328H26.3672V37.871L26.3675 37.8712Z" fill="#182538"/>
    <path fill-rule="evenodd" clip-rule="evenodd" d="M212.039 35.65C210.173 34.5167 208.073 33.95 205.739 33.95C203.406 33.95 201.406 34.5 199.739 35.6C198.106 36.7 196.939 38.1833 196.239 40.05V25H189.189V62H196.239V56.2C196.939 58.0667 198.106 59.5667 199.739 60.7C201.406 61.8 203.406 62.35 205.739 62.35C208.073 62.35 210.173 61.7833 212.039 60.65C213.906 59.5167 215.356 57.8833 216.389 55.75C217.456 53.5833 217.989 51.05 217.989 48.15C217.989 45.25 217.456 42.7333 216.389 40.6C215.356 38.4333 213.906 36.7833 212.039 35.65ZM198.239 42.3C199.639 40.8333 201.406 40.1 203.539 40.1C205.739 40.1 207.506 40.8167 208.839 42.25C210.173 43.6833 210.839 45.65 210.839 48.15C210.839 50.65 210.173 52.6167 208.839 54.05C207.506 55.45 205.739 56.15 203.539 56.15C201.406 56.15 199.639 55.4333 198.239 54C196.873 52.5333 196.189 50.5833 196.189 48.15C196.189 45.6833 196.873 43.7333 198.239 42.3ZM102.05 62V48.9H107.85C111.883 48.9 114.983 47.9 117.15 45.9C119.35 43.9 120.45 41.2167 120.45 37.85C120.45 34.4167 119.383 31.7 117.25 29.7C115.15 27.7 112.017 26.7 107.85 26.7H95V62H102.05ZM113.3 37.85C113.3 41.45 111.233 43.25 107.1 43.25H102.05V32.4H107.1C109.3 32.4 110.883 32.8667 111.85 33.8C112.817 34.7333 113.3 36.0833 113.3 37.85ZM141.879 35.6C140.213 34.5 138.213 33.95 135.879 33.95C133.546 33.95 131.446 34.5167 129.579 35.65C127.713 36.7833 126.246 38.4333 125.179 40.6C124.146 42.7333 123.629 45.25 123.629 48.15C123.629 51.05 124.146 53.5833 125.179 55.75C126.246 57.8833 127.713 59.5167 129.579 60.65C131.446 61.7833 133.546 62.35 135.879 62.35C138.213 62.35 140.213 61.8 141.879 60.7C143.546 59.5667 144.729 58.0667 145.429 56.2V62H152.429V34.3H145.429V40.05C144.729 38.1833 143.546 36.7 141.879 35.6ZM132.779 42.25C134.113 40.8167 135.879 40.1 138.079 40.1C140.213 40.1 141.963 40.8333 143.329 42.3C144.729 43.7333 145.429 45.6833 145.429 48.15C145.429 50.5833 144.729 52.5333 143.329 54C141.963 55.4333 140.213 56.15 138.079 56.15C135.879 56.15 134.113 55.45 132.779 54.05C131.446 52.6167 130.779 50.65 130.779 48.15C130.779 45.65 131.446 43.6833 132.779 42.25ZM163.568 34.3L171.118 53.1L178.118 34.3H185.868L168.918 75.2H161.118L167.368 61.2L155.718 34.3H163.568ZM235.779 33.95C238.479 33.95 240.895 34.5167 243.029 35.65C245.195 36.7833 246.895 38.4333 248.129 40.6C249.362 42.7333 249.979 45.25 249.979 48.15C249.979 51.05 249.362 53.5667 248.129 55.7C246.895 57.8333 245.195 59.4833 243.029 60.65C240.895 61.7833 238.479 62.35 235.779 62.35C233.079 62.35 230.645 61.7833 228.479 60.65C226.345 59.4833 224.662 57.8333 223.429 55.7C222.195 53.5667 221.579 51.05 221.579 48.15C221.579 45.25 222.195 42.7333 223.429 40.6C224.662 38.4333 226.345 36.7833 228.479 35.65C230.645 34.5167 233.079 33.95 235.779 33.95ZM235.779 40.05C233.812 40.05 232.145 40.75 230.779 42.15C229.412 43.5167 228.729 45.5167 228.729 48.15C228.729 50.7833 229.412 52.8 230.779 54.2C232.145 55.5667 233.812 56.25 235.779 56.25C237.745 56.25 239.412 55.5667 240.779 54.2C242.145 52.8 242.829 50.7833 242.829 48.15C242.829 45.5167 242.145 43.5167 240.779 42.15C239.412 40.75 237.745 40.05 235.779 40.05ZM268.508 57.3339L265.511 53.1L260.211 62H252.461L261.611 47.55L252.261 34.3H260.161L266.311 43.05L271.611 34.3H279.361L270.061 48.35L272.31 51.5317L268.508 57.3339Z" fill="#182538"/>
    <path d="M291 34.5001L298.5 34.5001L281 62.687L273 62.687L291 34.5001Z" fill="#182538"/>
    <circle cx="295.5" cy="58.5" r="4.5" fill="#182538"/>
</svg>
