<svg width="90" height="75" viewBox="0 0 90 75" fill="none" 
    xmlns="http://www.w3.org/2000/svg">
    <path fill-rule="evenodd" clip-rule="evenodd" d="M86.8966 40.625H77.5862V50C77.5862 51.725 76.1959 53.125 74.4828 53.125C72.7697 53.125 71.3793 51.725 71.3793 50V40.625H62.069C60.3559 40.625 58.9655 39.225 58.9655 37.5C58.9655 35.775 60.3559 34.375 62.069 34.375H71.3793V25C71.3793 23.275 72.7697 21.875 74.4828 21.875C76.1959 21.875 77.5862 23.275 77.5862 25V34.375H86.8966C88.6097 34.375 90 35.775 90 37.5C90 39.225 88.6097 40.625 86.8966 40.625ZM39.7955 41.875C52.5103 45.5312 62.069 56.8312 62.069 69.7937V71.875C62.069 73.6 60.6786 75 58.9655 75H3.10345C1.39034 75 0 73.6 0 71.875V69.7937C0 56.8312 9.55862 45.5312 22.2734 41.875C14.6483 38.475 9.31034 30.7969 9.31034 21.875C9.31034 9.8125 19.0552 0 31.0345 0C43.0138 0 52.7586 9.8125 52.7586 21.875C52.7586 30.7969 47.4207 38.475 39.7955 41.875ZM6.23483 68.75H55.8341C55.2228 56.7906 44.1124 46.875 31.0345 46.875C17.9566 46.875 6.84931 56.7906 6.23483 68.75ZM31.0345 6.25C22.4783 6.25 15.5172 13.2594 15.5172 21.875C15.5172 30.4906 22.4783 37.5 31.0345 37.5C39.5907 37.5 46.5517 30.4906 46.5517 21.875C46.5517 13.2594 39.5907 6.25 31.0345 6.25Z" fill="white"/>
</svg>
