<svg width="41" height="40" viewBox="0 0 41 40" fill="none" 
    xmlns="http://www.w3.org/2000/svg">
    <rect opacity="0.1" width="41" height="40" rx="10" fill="white"/>
    <g clip-path="url(#clip0)">
        <path fill-rule="evenodd" clip-rule="evenodd" d="M31.3333 20.8333H28.8333V23.3333C28.8333 23.7933 28.46 24.1667 28 24.1667C27.54 24.1667 27.1667 23.7933 27.1667 23.3333V20.8333H24.6667C24.2067 20.8333 23.8333 20.46 23.8333 20C23.8333 19.54 24.2067 19.1667 24.6667 19.1667H27.1667V16.6667C27.1667 16.2067 27.54 15.8333 28 15.8333C28.46 15.8333 28.8333 16.2067 28.8333 16.6667V19.1667H31.3333C31.7933 19.1667 32.1667 19.54 32.1667 20C32.1667 20.46 31.7933 20.8333 31.3333 20.8333ZM18.6858 21.1667C22.1 22.1417 24.6667 25.155 24.6667 28.6117V29.1667C24.6667 29.6267 24.2933 30 23.8333 30H8.83333C8.37333 30 8 29.6267 8 29.1667V28.6117C8 25.155 10.5667 22.1417 13.9808 21.1667C11.9333 20.26 10.5 18.2125 10.5 15.8333C10.5 12.6167 13.1167 10 16.3333 10C19.55 10 22.1667 12.6167 22.1667 15.8333C22.1667 18.2125 20.7333 20.26 18.6858 21.1667ZM9.67417 28.3333H22.9925C22.8283 25.1442 19.845 22.5 16.3333 22.5C12.8217 22.5 9.83917 25.1442 9.67417 28.3333ZM16.3333 11.6667C14.0358 11.6667 12.1667 13.5358 12.1667 15.8333C12.1667 18.1308 14.0358 20 16.3333 20C18.6308 20 20.5 18.1308 20.5 15.8333C20.5 13.5358 18.6308 11.6667 16.3333 11.6667Z" fill="white"/>
    </g>
    <defs>
        <clipPath id="clip0">
            <rect width="24.1667" height="20" fill="white" transform="translate(8 10)"/>
        </clipPath>
    </defs>
</svg>
