<svg width="382" height="251" viewBox="0 0 382 251" fill="none" 
    xmlns="http://www.w3.org/2000/svg">
    <mask id="mask0" mask-type="alpha" maskUnits="userSpaceOnUse" x="0" y="0" width="380" height="247">
        <path d="M370 0H10C4.47715 0 0 4.47716 0 10V237C0 242.523 4.47716 247 10 247H370C375.523 247 380 242.523 380 237V10C380 4.47715 375.523 0 370 0Z" fill="#85D9BF"/>
    </mask>
    <g mask="url(#mask0)">
        <path opacity="0.1" d="M647 37.6389C647 149.164 242.917 305 242.917 305C242.917 305 465.97 21.4272 242.917 37.6389C19.8637 53.8506 242.974 -251.531 444.958 -164.295C646.943 -77.0598 647 -73.8864 647 37.6389Z" fill="url(#paint0_linear)"/>
        <path opacity="0.1" d="M402 163.695C402 272.738 229.476 287 229.476 287C229.476 287 46.4519 239.645 92.4012 163.695C122.686 113.637 240.028 285.399 229.475 103.775C218.923 -77.8489 402 54.6512 402 163.695Z" fill="url(#paint1_linear)"/>
    </g>
    <defs>
        <linearGradient id="paint0_linear" x1="158.667" y1="-133.602" x2="677.627" y2="52.2021" gradientUnits="userSpaceOnUse">
            <stop stop-color="white" stop-opacity="0.25"/>
            <stop offset="1" stop-color="white"/>
        </linearGradient>
        <linearGradient id="paint1_linear" x1="90.5282" y1="40.117" x2="411.188" y2="170.208" gradientUnits="userSpaceOnUse">
            <stop stop-color="white" stop-opacity="0.25"/>
            <stop offset="1" stop-color="white"/>
        </linearGradient>
    </defs>
</svg>
