<svg width="20" height="15" viewBox="0 0 20 15" fill="none" 
    xmlns="http://www.w3.org/2000/svg">
    <path fill-rule="evenodd" clip-rule="evenodd" d="M19.517 7.26577L13.759 13.1016C13.5982 13.2641 13.388 13.3462 13.1769 13.3462C12.9667 13.3462 12.7565 13.2641 12.5957 13.1016C12.2741 12.7767 12.2741 12.2482 12.5957 11.9224L17.7724 6.67699L12.5957 1.43076C12.2741 1.1058 12.2741 0.577328 12.5957 0.25237C12.9173 -0.0734258 13.4374 -0.0734258 13.759 0.25237L19.517 6.08738C19.8386 6.41317 19.8386 6.94081 19.517 7.26577ZM15.4039 7.26577L9.64595 13.1016C9.48849 13.2616 9.27827 13.3462 9.06387 13.3462C8.95834 13.3462 8.85114 13.3252 8.74896 13.2825C8.44243 13.1535 8.27241 12.8738 8.27241 12.5363V9.98688C5.88631 9.94751 4.09402 10.4659 2.94745 11.5388C1.70206 12.7055 1.66185 14.1284 1.66018 14.1879C1.6518 14.636 1.29586 15.0003 0.854484 15.0095C0.848621 15.0095 0.842759 15.0095 0.837733 15.0095C0.40306 15.0095 0.0420881 14.6695 0.0169625 14.2281C-0.291245 8.9182 2.18447 6.2306 4.31596 4.91066C5.84946 3.96175 7.3905 3.58822 8.27241 3.43998V0.810996C8.27241 0.474313 8.44243 0.200444 8.74896 0.0714653C9.05633 -0.0575129 9.40977 0.0128389 9.64595 0.25237L15.4039 6.08738C15.7255 6.41317 15.7255 6.94081 15.4039 7.26577ZM9.88715 2.85371V4.17616C9.88715 4.22557 9.86705 4.26828 9.85868 4.31518C9.84946 4.36962 9.84611 4.42574 9.82685 4.47683C9.80759 4.52708 9.77576 4.56728 9.74728 4.6125C9.71881 4.65857 9.6962 4.70547 9.65935 4.74483C9.62333 4.78336 9.57894 4.80932 9.53707 4.84031C9.49352 4.87214 9.45415 4.90731 9.40474 4.92992C9.35616 4.95254 9.30256 4.95924 9.24896 4.9718C9.2029 4.98269 9.16186 5.0053 9.11328 5.00781C8.83857 5.02624 3.84779 5.41569 2.17609 10.0145C3.77743 8.7239 6.10491 8.16192 9.11328 8.34534C9.16186 8.34785 9.2029 8.37046 9.24812 8.38135C9.30172 8.39391 9.357 8.40061 9.40558 8.42406C9.45415 8.44668 9.49184 8.48101 9.53456 8.512C9.57811 8.54383 9.62333 8.56979 9.66018 8.60915C9.69536 8.64768 9.71797 8.69458 9.74645 8.73897C9.77492 8.78503 9.80759 8.82691 9.82685 8.878C9.84695 8.92825 9.84946 8.98353 9.85951 9.0388C9.86705 9.0857 9.88715 9.12842 9.88715 9.17783V10.4994L13.6593 6.67699L9.88715 2.85371Z" fill="#014886"/>
</svg>
