<svg width="42" height="42" viewBox="0 0 42 42" fill="none" xmlns="http://www.w3.org/2000/svg">
<circle cx="21" cy="21" r="20.5" fill="#D1EBFF" stroke="#C2E4FF"/>
<path d="M26.0122 13.1687C26.0122 12.3625 35.3935 18.6937 35.3935 18.6937H32.7685V29.025H9.19971V29.175C9.19971 26.6312 11.5622 24.575 14.481 24.575H22.731C26.1372 24.575 25.981 21.7125 25.981 13.675V13.6312C25.981 13.475 26.0122 13.3187 26.0122 13.1687Z" fill="url(#paint0_linear)"/>
<path d="M25.7314 18.1937C26.0064 18.1937 26.2314 18.4187 26.2314 18.6937C26.2314 18.9687 26.0064 19.1937 25.7314 19.1937H22.8877V26.4312C22.8877 26.7062 22.6627 26.9312 22.3877 26.9312C22.1127 26.9312 21.8877 26.7062 21.8877 26.4312V18.6937C21.8877 18.4187 22.1127 18.1937 22.3877 18.1937H25.7314ZM17.3752 18.1937C17.1002 18.1937 16.8752 18.4187 16.8752 18.6937V26.4312C16.8752 26.7062 17.1002 26.9312 17.3752 26.9312C17.6502 26.9312 17.8752 26.7062 17.8752 26.4312V19.1937H20.7189C20.9939 19.1937 21.2189 18.9687 21.2189 18.6937C21.2189 18.4187 20.9939 18.1937 20.7189 18.1937H17.3752ZM13.2814 15.7812L21.5564 10.9125L33.9314 18.1937H32.4252C32.1502 18.1937 31.9252 18.4187 31.9252 18.6937V27.0625C31.9252 27.3375 32.1502 27.5625 32.4252 27.5625C32.7002 27.5625 32.9252 27.3375 32.9252 27.0625V19.1937H35.7689C35.9939 19.1937 36.1939 19.0437 36.2502 18.825C36.3064 18.6062 36.2127 18.375 36.0189 18.2625L21.8064 9.89996C21.6502 9.80621 21.4564 9.80621 21.3002 9.89996L12.7752 14.9187C12.5377 15.0562 12.4564 15.3625 12.6002 15.6062C12.7377 15.8375 13.0439 15.9187 13.2814 15.7812ZM27.4064 18.1937C27.1314 18.1937 26.9064 18.4187 26.9064 18.6937V26.4312C26.9064 26.7062 27.1314 26.9312 27.4064 26.9312C27.6814 26.9312 27.9064 26.7062 27.9064 26.4312V19.1937H30.7502C31.0252 19.1937 31.2502 18.9687 31.2502 18.6937C31.2502 18.4187 31.0252 18.1937 30.7502 18.1937H27.4064ZM35.7627 33.3H8.52515L8.86265 32.625H34.6127C34.8877 32.625 35.1127 32.4 35.1127 32.125C35.1127 31.85 34.8877 31.625 34.6127 31.625H8.55015C8.36265 31.625 8.18765 31.7312 8.10015 31.9L7.26265 33.575C7.18765 33.7312 7.1939 33.9125 7.28765 34.0625C7.3814 34.2125 7.53765 34.3 7.71265 34.3H35.7627C36.0377 34.3 36.2627 34.075 36.2627 33.8C36.2627 33.525 36.0377 33.3 35.7627 33.3ZM12.3564 26.925C12.6314 26.925 12.8564 26.7 12.8564 26.425V19.1937H15.7002C15.9752 19.1937 16.2002 18.9687 16.2002 18.6937C16.2002 18.4187 15.9752 18.1937 15.7002 18.1937H12.3564C12.0814 18.1937 11.8564 18.4187 11.8564 18.6937V26.4312C11.8564 26.7 12.0814 26.925 12.3564 26.925ZM10.1877 19.1937V26.5562H9.01265C8.73765 26.5562 8.51265 26.7812 8.51265 27.0562V28.7312C8.51265 29.0062 8.73765 29.2312 9.01265 29.2312H32.4877L32.8252 29.9062H9.3314C9.0564 29.9062 8.8314 30.1312 8.8314 30.4062C8.8314 30.6812 9.0564 30.9062 9.3314 30.9062H33.6314C33.8064 30.9062 33.9627 30.8187 34.0564 30.6687C34.1502 30.5187 34.1564 30.3375 34.0752 30.1812L33.2439 28.5C33.1564 28.3312 32.9877 28.225 32.7939 28.225H9.51265V27.55H10.6877C10.9627 27.55 11.1877 27.325 11.1877 27.05V18.6937C11.1877 18.4187 10.9627 18.1937 10.6877 18.1937H9.17515L10.4377 17.45C10.6752 17.3125 10.7564 17.0062 10.6127 16.7625C10.4752 16.525 10.1689 16.4437 9.92515 16.5875L7.0814 18.2625C6.88765 18.375 6.7939 18.6062 6.85015 18.825C6.9064 19.0437 7.1064 19.1937 7.3314 19.1937H10.1877Z" fill="black"/>
<path d="M29.5499 8.49999C29.8124 8.76249 29.8124 9.18749 29.5499 9.44999C29.2874 9.71249 28.8624 9.71249 28.5999 9.44999C28.3374 9.18749 28.3374 8.76249 28.5999 8.49999C28.8624 8.23749 29.2874 8.23749 29.5499 8.49999ZM8.66865 8.85624H8.4249V8.61249C8.4249 8.33749 8.1999 8.11249 7.9249 8.11249C7.6499 8.11249 7.4249 8.33749 7.4249 8.61249V8.85624H7.18115C6.90615 8.85624 6.68115 9.08124 6.68115 9.35624C6.68115 9.63124 6.90615 9.85624 7.18115 9.85624H7.4249V10.1C7.4249 10.375 7.6499 10.6 7.9249 10.6C8.1999 10.6 8.4249 10.375 8.4249 10.1V9.85624H8.66865C8.94365 9.85624 9.16865 9.63124 9.16865 9.35624C9.16865 9.08124 8.94365 8.85624 8.66865 8.85624ZM35.0437 10.375H34.0562V9.38749C34.0562 9.11249 33.8312 8.88749 33.5562 8.88749C33.2812 8.88749 33.0562 9.11249 33.0562 9.38749V10.375H32.0687C31.7937 10.375 31.5687 10.6 31.5687 10.875C31.5687 11.15 31.7937 11.375 32.0687 11.375H33.0562V12.3625C33.0562 12.6375 33.2812 12.8625 33.5562 12.8625C33.8312 12.8625 34.0562 12.6375 34.0562 12.3625V11.375H35.0437C35.3187 11.375 35.5437 11.15 35.5437 10.875C35.5437 10.6 35.3187 10.375 35.0437 10.375Z" fill="black"/>
<defs>
<linearGradient id="paint0_linear" x1="22.2948" y1="30.4358" x2="22.2948" y2="11.1179" gradientUnits="userSpaceOnUse">
<stop stop-color="#ABDCFF"/>
<stop offset="1" stop-color="#0396FF"/>
</linearGradient>
</defs>
</svg>
