<svg width="42" height="42" viewBox="0 0 42 42" fill="none" xmlns="http://www.w3.org/2000/svg">
<circle cx="21" cy="21" r="20.5" fill="#D1EBFF" stroke="#C2E4FF"/>
<path d="M35.7246 14.1437V15.15H31.0934L31.0559 13.3562C31.0559 11.5562 32.0309 11.05 33.8309 11.05C34.2184 11.05 34.6934 11.6312 35.0684 12.3062C35.4496 12.9812 35.7246 13.7562 35.7246 14.1437ZM31.2809 24.5875C31.2809 26.3875 29.8246 27.8437 28.0246 27.8437H9.48712C7.88087 27.8437 6.80587 27.7437 6.80587 29.35C6.80587 29.4562 6.53712 29.5375 7.09962 30.0937C7.63712 30.6375 8.38712 30.975 9.21837 30.975H31.1559C33.6809 30.975 35.7246 28.9312 35.7246 26.4062V18.7125H33.7684C32.3434 18.7125 31.1934 19.8812 31.2184 21.3125L31.2809 24.5875Z" fill="url(#paint0_linear)"/>
<path d="M32.4065 31.4313H9.56279C7.60654 31.4313 6.01904 29.8375 6.01904 27.8875V14.175C6.01904 12.2188 7.61279 10.6313 9.56279 10.6313H32.4065C34.3628 10.6313 35.9503 12.225 35.9503 14.175V15.525C35.9503 15.8 35.7253 16.025 35.4503 16.025H9.65029V18.025H35.4565C35.7315 18.025 35.9565 18.25 35.9565 18.525C35.9565 18.8 35.7315 19.025 35.4565 19.025H9.15029C8.87529 19.025 8.65029 18.8 8.65029 18.525V15.525C8.65029 15.25 8.87529 15.025 9.15029 15.025H34.9565V14.175C34.9565 12.7688 33.8128 11.6313 32.4128 11.6313H9.56279C8.15654 11.6313 7.01904 12.775 7.01904 14.175V27.8813C7.01904 29.2875 8.16279 30.425 9.56279 30.425H32.4065C33.8128 30.425 34.9503 29.2813 34.9503 27.8813V20.6188C34.9503 20.3438 35.1753 20.1188 35.4503 20.1188C35.7253 20.1188 35.9503 20.3438 35.9503 20.6188V27.8813C35.9503 29.8375 34.3628 31.4313 32.4065 31.4313ZM30.8815 25.3375H24.7878C24.5128 25.3375 24.2878 25.1125 24.2878 24.8375C24.2878 24.5625 24.5128 24.3375 24.7878 24.3375H30.8815C31.1565 24.3375 31.3815 24.5625 31.3815 24.8375C31.3815 25.1125 31.1628 25.3375 30.8815 25.3375ZM22.3753 25.3375H18.7815C18.5065 25.3375 18.2815 25.1125 18.2815 24.8375C18.2815 24.5625 18.5065 24.3375 18.7815 24.3375H22.3753C22.6503 24.3375 22.8753 24.5625 22.8753 24.8375C22.8753 25.1125 22.6503 25.3375 22.3753 25.3375Z" fill="black"/>
<path d="M34.5689 33.9125V35.3625H33.1627V33.9125H34.5689ZM27.5439 35.3563H28.9502V33.9062H27.5439V35.3563Z" fill="#0396FF"/>
<path d="M31.7315 33.9125V35.3625H30.3815V33.9125H31.7315ZM24.769 35.3563H26.119V33.9062H24.769V35.3563Z" fill="#ABDCFF"/>
<path d="M11.8128 34.2C11.8128 34.475 11.5878 34.7 11.3128 34.7H7.61279C7.33779 34.7 7.11279 34.475 7.11279 34.2C7.11279 33.925 7.33779 33.7 7.61279 33.7H11.3128C11.5878 33.7 11.8128 33.925 11.8128 34.2ZM35.4503 7.32504H24.5128C24.2378 7.32504 24.0128 7.55004 24.0128 7.82504C24.0128 8.10004 24.2378 8.32504 24.5128 8.32504H35.4503C35.7253 8.32504 35.9503 8.10004 35.9503 7.82504C35.9503 7.55004 35.7315 7.32504 35.4503 7.32504ZM8.46279 9.32504H8.70654V9.56879C8.70654 9.84379 8.93154 10.0688 9.20654 10.0688C9.48154 10.0688 9.70654 9.84379 9.70654 9.56879V9.32504H9.95029C10.2253 9.32504 10.4503 9.10004 10.4503 8.82504C10.4503 8.55004 10.2253 8.32504 9.95029 8.32504H9.70654V8.08129C9.70654 7.80629 9.48154 7.58129 9.20654 7.58129C8.93154 7.58129 8.70654 7.80629 8.70654 8.08129V8.32504H8.46279C8.18779 8.32504 7.96279 8.55004 7.96279 8.82504C7.96279 9.10004 8.18779 9.32504 8.46279 9.32504Z" fill="black"/>
<defs>
<linearGradient id="paint0_linear" x1="21.2337" y1="30.4196" x2="21.2337" y2="11.5574" gradientUnits="userSpaceOnUse">
<stop stop-color="#ABDCFF"/>
<stop offset="1" stop-color="#0396FF"/>
</linearGradient>
</defs>
</svg>
