<svg width="592" height="482" viewBox="0 0 592 482" fill="none" 
    xmlns="http://www.w3.org/2000/svg">
    <g clip-path="url(#clip0)">
        <path d="M474.311 482C533.614 482 581.689 471.175 581.689 457.823C581.689 444.471 533.614 433.646 474.311 433.646C415.008 433.646 366.933 444.471 366.933 457.823C366.933 471.175 415.008 482 474.311 482Z" fill="#FF00A3"/>
        <path d="M484.267 474.889C543.57 474.889 591.645 464.065 591.645 450.713C591.645 437.36 543.57 426.536 484.267 426.536C424.964 426.536 376.889 437.36 376.889 450.713C376.889 464.065 424.964 474.889 484.267 474.889Z" stroke="#3F3D56" stroke-miterlimit="10"/>
        <path d="M310.4 237.745C322.182 237.745 331.734 228.194 331.734 216.412C331.734 204.631 322.182 195.08 310.4 195.08C298.618 195.08 289.067 204.631 289.067 216.412C289.067 228.194 298.618 237.745 310.4 237.745Z" fill="#FF00A3"/>
        <path d="M396.444 237.745C408.226 237.745 417.778 228.194 417.778 216.412C417.778 204.631 408.226 195.08 396.444 195.08C384.662 195.08 375.111 204.631 375.111 216.412C375.111 228.194 384.662 237.745 396.444 237.745Z" fill="#FF00A3"/>
        <path d="M482.489 237.745C494.271 237.745 503.822 228.194 503.822 216.412C503.822 204.631 494.271 195.08 482.489 195.08C470.707 195.08 461.156 204.631 461.156 216.412C461.156 228.194 470.707 237.745 482.489 237.745Z" fill="#FF00A3"/>
        <path d="M8.88883 16.6C10.067 16.6 11.0222 15.6449 11.0222 14.4667C11.0222 13.2886 10.067 12.3335 8.88883 12.3335C7.71062 12.3335 6.75549 13.2886 6.75549 14.4667C6.75549 15.6449 7.71062 16.6 8.88883 16.6Z" fill="#F86B75"/>
        <path d="M15.289 16.6C16.4672 16.6 17.4223 15.6449 17.4223 14.4667C17.4223 13.2886 16.4672 12.3335 15.289 12.3335C14.1108 12.3335 13.1556 13.2886 13.1556 14.4667C13.1556 15.6449 14.1108 16.6 15.289 16.6Z" fill="#FAD375"/>
        <path d="M21.6889 16.6C22.8671 16.6 23.8222 15.6449 23.8222 14.4667C23.8222 13.2886 22.8671 12.3335 21.6889 12.3335C20.5107 12.3335 19.5555 13.2886 19.5555 14.4667C19.5555 15.6449 20.5107 16.6 21.6889 16.6Z" fill="#8BCC55"/>
        <path d="M194.133 47.5317H47.6445V93.0407H194.133V47.5317Z" fill="#FF00A3"/>
        <path d="M259.2 7.35596H0.355591V160.949H259.2V7.35596Z" stroke="#3F3D56" stroke-miterlimit="10"/>
        <path d="M0.355591 18.9878H259.2" stroke="#3F3D56" stroke-miterlimit="10"/>
        <path d="M9.59989 15.1776C10.7781 15.1776 11.7332 14.2225 11.7332 13.0444C11.7332 11.8662 10.7781 10.9111 9.59989 10.9111C8.42168 10.9111 7.46655 11.8662 7.46655 13.0444C7.46655 14.2225 8.42168 15.1776 9.59989 15.1776Z" stroke="#3F3D56" stroke-miterlimit="10"/>
        <path d="M16 15.1776C17.1782 15.1776 18.1334 14.2225 18.1334 13.0444C18.1334 11.8662 17.1782 10.9111 16 10.9111C14.8218 10.9111 13.8667 11.8662 13.8667 13.0444C13.8667 14.2225 14.8218 15.1776 16 15.1776Z" stroke="#3F3D56" stroke-miterlimit="10"/>
        <path d="M22.4001 15.1776C23.5783 15.1776 24.5334 14.2225 24.5334 13.0444C24.5334 11.8662 23.5783 10.9111 22.4001 10.9111C21.2219 10.9111 20.2667 11.8662 20.2667 13.0444C20.2667 14.2225 21.2219 15.1776 22.4001 15.1776Z" stroke="#3F3D56" stroke-miterlimit="10"/>
        <path d="M203.022 38.6431H56.5334V84.152H203.022V38.6431Z" stroke="#3F3D56" stroke-miterlimit="10"/>
        <path d="M225.422 112.951H29.1555V118.835H225.422V112.951Z" fill="#F2F2F2"/>
        <path d="M225.422 127.075H29.1555V132.959H225.422V127.075Z" fill="#F2F2F2"/>
        <path d="M225.422 141.198H29.1555V147.083H225.422V141.198Z" fill="#F2F2F2"/>
        <path d="M227.555 110.106H31.2888V115.991H227.555V110.106Z" stroke="#3F3D56" stroke-miterlimit="10"/>
        <path d="M227.555 124.23H31.2888V130.115H227.555V124.23Z" stroke="#3F3D56" stroke-miterlimit="10"/>
        <path d="M227.555 138.354H31.2888V144.238H227.555V138.354Z" stroke="#3F3D56" stroke-miterlimit="10"/>
        <path d="M68.6221 282.543C69.8003 282.543 70.7554 281.588 70.7554 280.41C70.7554 279.231 69.8003 278.276 68.6221 278.276C67.4439 278.276 66.4888 279.231 66.4888 280.41C66.4888 281.588 67.4439 282.543 68.6221 282.543Z" fill="#F86B75"/>
        <path d="M75.0223 282.543C76.2005 282.543 77.1556 281.588 77.1556 280.41C77.1556 279.231 76.2005 278.276 75.0223 278.276C73.844 278.276 72.8889 279.231 72.8889 280.41C72.8889 281.588 73.844 282.543 75.0223 282.543Z" fill="#FAD375"/>
        <path d="M81.4221 282.543C82.6004 282.543 83.5555 281.588 83.5555 280.41C83.5555 279.231 82.6004 278.276 81.4221 278.276C80.2439 278.276 79.2888 279.231 79.2888 280.41C79.2888 281.588 80.2439 282.543 81.4221 282.543Z" fill="#8BCC55"/>
        <path d="M253.867 313.475H107.378V358.984H253.867V313.475Z" fill="#FF00A3"/>
        <path d="M318.933 304.586V426.892H60.0889V273.299H270.578" stroke="#3F3D56" stroke-miterlimit="10"/>
        <path d="M60.0889 284.93H270.933" stroke="#3F3D56" stroke-miterlimit="10"/>
        <path d="M69.3333 281.121C70.5115 281.121 71.4666 280.165 71.4666 278.987C71.4666 277.809 70.5115 276.854 69.3333 276.854C68.1551 276.854 67.2 277.809 67.2 278.987C67.2 280.165 68.1551 281.121 69.3333 281.121Z" stroke="#3F3D56" stroke-miterlimit="10"/>
        <path d="M75.7334 281.121C76.9116 281.121 77.8668 280.165 77.8668 278.987C77.8668 277.809 76.9116 276.854 75.7334 276.854C74.5552 276.854 73.6001 277.809 73.6001 278.987C73.6001 280.165 74.5552 281.121 75.7334 281.121Z" stroke="#3F3D56" stroke-miterlimit="10"/>
        <path d="M82.1333 281.121C83.3115 281.121 84.2666 280.165 84.2666 278.987C84.2666 277.809 83.3115 276.854 82.1333 276.854C80.9551 276.854 80 277.809 80 278.987C80 280.165 80.9551 281.121 82.1333 281.121Z" stroke="#3F3D56" stroke-miterlimit="10"/>
        <path d="M262.755 304.586H116.267V350.095H262.755V304.586Z" stroke="#3F3D56" stroke-miterlimit="10"/>
        <path d="M279.111 159.526C280.289 159.526 281.244 158.571 281.244 157.393C281.244 156.215 280.289 155.26 279.111 155.26C277.933 155.26 276.978 156.215 276.978 157.393C276.978 158.571 277.933 159.526 279.111 159.526Z" fill="#F86B75"/>
        <path d="M285.511 159.526C286.689 159.526 287.644 158.571 287.644 157.393C287.644 156.215 286.689 155.26 285.511 155.26C284.333 155.26 283.378 156.215 283.378 157.393C283.378 158.571 284.333 159.526 285.511 159.526Z" fill="#FAD375"/>
        <path d="M291.911 159.526C293.089 159.526 294.045 158.571 294.045 157.393C294.045 156.215 293.089 155.26 291.911 155.26C290.733 155.26 289.778 156.215 289.778 157.393C289.778 158.571 290.733 159.526 291.911 159.526Z" fill="#8BCC55"/>
        <path d="M529.422 150.282H270.578V303.875H529.422V150.282Z" stroke="#3F3D56" stroke-miterlimit="10"/>
        <path d="M270.578 161.914H529.422" stroke="#3F3D56" stroke-miterlimit="10"/>
        <path d="M279.822 158.104C281 158.104 281.956 157.149 281.956 155.971C281.956 154.793 281 153.838 279.822 153.838C278.644 153.838 277.689 154.793 277.689 155.971C277.689 157.149 278.644 158.104 279.822 158.104Z" stroke="#3F3D56" stroke-miterlimit="10"/>
        <path d="M286.222 158.104C287.4 158.104 288.356 157.149 288.356 155.971C288.356 154.793 287.4 153.838 286.222 153.838C285.044 153.838 284.089 154.793 284.089 155.971C284.089 157.149 285.044 158.104 286.222 158.104Z" stroke="#3F3D56" stroke-miterlimit="10"/>
        <path d="M292.622 158.104C293.8 158.104 294.755 157.149 294.755 155.971C294.755 154.793 293.8 153.838 292.622 153.838C291.444 153.838 290.489 154.793 290.489 155.971C290.489 157.149 291.444 158.104 292.622 158.104Z" stroke="#3F3D56" stroke-miterlimit="10"/>
        <path d="M313.956 234.19C325.738 234.19 335.289 224.639 335.289 212.857C335.289 201.076 325.738 191.525 313.956 191.525C302.174 191.525 292.622 201.076 292.622 212.857C292.622 224.639 302.174 234.19 313.956 234.19Z" stroke="#3F3D56" stroke-miterlimit="10"/>
        <path d="M400 234.19C411.782 234.19 421.333 224.639 421.333 212.857C421.333 201.076 411.782 191.525 400 191.525C388.218 191.525 378.667 201.076 378.667 212.857C378.667 224.639 388.218 234.19 400 234.19Z" stroke="#3F3D56" stroke-miterlimit="10"/>
        <path d="M486.044 234.19C497.827 234.19 507.378 224.639 507.378 212.857C507.378 201.076 497.827 191.525 486.044 191.525C474.262 191.525 464.711 201.076 464.711 212.857C464.711 224.639 474.262 234.19 486.044 234.19Z" stroke="#3F3D56" stroke-miterlimit="10"/>
        <path d="M339.911 252.322H281.6V258.01H339.911V252.322Z" fill="#F2F2F2"/>
        <path d="M426.667 252.322H368.356V258.01H426.667V252.322Z" fill="#F2F2F2"/>
        <path d="M513.422 252.322H455.111V258.01H513.422V252.322Z" fill="#F2F2F2"/>
        <path d="M342.755 250.188H284.444V255.877H342.755V250.188Z" stroke="#3F3D56" stroke-miterlimit="10"/>
        <path d="M429.511 250.188H371.2V255.877H429.511V250.188Z" stroke="#3F3D56" stroke-miterlimit="10"/>
        <path d="M516.267 250.188H457.956V255.877H516.267V250.188Z" stroke="#3F3D56" stroke-miterlimit="10"/>
        <path d="M114.489 376.761H69.689V415.159H114.489V376.761Z" fill="#F2F2F2"/>
        <path d="M197.333 377.116H152.533V415.514H197.333V377.116Z" fill="#F2F2F2"/>
        <path d="M280.178 377.472H235.378V415.87H280.178V377.472Z" fill="#F2F2F2"/>
        <path d="M120.889 369.65H76.0889V408.048H120.889V369.65Z" stroke="#3F3D56" stroke-miterlimit="10"/>
        <path d="M203.733 370.005H158.933V408.404H203.733V370.005Z" stroke="#3F3D56" stroke-miterlimit="10"/>
        <path d="M286.578 370.361H241.778V408.759H286.578V370.361Z" stroke="#3F3D56" stroke-miterlimit="10"/>
        <path d="M427.226 145.41L407.272 156.465L428.551 148.959L427.226 145.41Z" fill="#79758C"/>
        <path d="M436.219 156.287C439.143 155.337 439.962 149.792 438.049 143.901C436.135 138.01 432.213 134.004 429.289 134.954C426.365 135.903 425.545 141.449 427.459 147.34C429.373 153.231 433.294 157.237 436.219 156.287Z" fill="#3F3D56"/>
        <path d="M452.555 144.6C454.761 143.884 455.454 139.931 454.103 135.771C452.752 131.612 449.868 128.821 447.662 129.537C445.455 130.254 444.762 134.207 446.113 138.366C447.465 142.526 450.348 145.317 452.555 144.6Z" fill="#3F3D56"/>
        <path d="M434.037 139.144L447.272 134.366L450.085 142.158L437.276 150.81L434.037 139.144Z" fill="#3F3D56"/>
        <path d="M432.771 167.792L436.327 159.97C436.327 159.97 444.86 137.216 437.038 141.482C429.216 145.749 426.371 157.126 426.371 157.126L424.238 164.237L432.771 167.792Z" fill="#A0616A"/>
        <path d="M530.194 285.831C530.194 285.831 518.105 309.296 514.549 310.007C510.994 310.718 510.994 288.675 510.994 288.675C510.994 288.675 518.105 282.275 520.949 282.986C523.794 283.697 530.194 285.831 530.194 285.831Z" fill="#A0616A"/>
        <path d="M512.416 433.735C512.416 433.735 518.816 437.29 515.971 445.112C513.127 452.934 511.705 450.801 510.282 457.2C508.86 463.6 496.06 462.889 495.349 460.045C494.638 457.2 493.216 445.823 496.771 441.557C500.327 437.29 512.416 433.735 512.416 433.735Z" fill="#55536E"/>
        <path d="M449.127 433.735C449.127 433.735 442.727 437.29 445.572 445.112C448.416 452.934 449.838 450.801 451.26 457.2C452.683 463.6 465.483 462.889 466.194 460.045C466.905 457.2 468.327 445.823 464.772 441.557C461.216 437.29 449.127 433.735 449.127 433.735Z" fill="#55536E"/>
        <path d="M508.861 291.519C508.861 291.519 514.549 295.075 515.972 317.118C517.394 339.162 515.261 364.049 514.549 369.738C513.838 375.427 515.261 383.959 516.683 388.226C518.105 392.492 513.127 425.202 513.127 425.202C514.177 427.426 514.721 429.854 514.721 432.313C514.721 434.771 514.177 437.2 513.127 439.423C509.572 447.245 498.905 455.067 496.061 447.245C495.912 444.516 495.184 441.85 493.927 439.423C491.794 435.157 495.349 418.091 495.349 418.091C495.349 418.091 492.505 391.07 493.216 383.959C493.927 376.849 484.683 334.895 483.261 327.784C481.838 320.674 482.549 314.985 481.838 317.118C481.127 319.251 468.327 378.271 468.327 378.271C468.327 378.271 469.749 415.958 469.038 420.935C468.327 425.913 471.883 435.868 469.749 439.423C467.616 442.979 463.349 455.778 455.527 447.956C447.705 440.135 449.127 437.29 448.416 433.735C447.705 430.179 448.416 425.913 448.416 420.224C448.416 414.536 442.727 382.537 445.572 377.56C448.416 372.582 446.994 366.183 446.283 354.805C445.572 343.428 444.86 288.675 451.972 278.72C459.083 268.765 508.861 291.519 508.861 291.519Z" fill="#3F3D56"/>
        <path d="M491.438 158.192C500.864 158.192 508.505 150.552 508.505 141.126C508.505 131.701 500.864 124.061 491.438 124.061C482.012 124.061 474.371 131.701 474.371 141.126C474.371 150.552 482.012 158.192 491.438 158.192Z" fill="#A0616A"/>
        <path d="M502.46 147.882C502.46 147.882 501.749 173.481 505.305 177.747C508.86 182.014 474.727 174.192 474.727 174.192C474.727 174.192 482.549 157.837 477.571 147.171C472.594 136.505 502.46 147.882 502.46 147.882Z" fill="#A0616A"/>
        <path d="M508.86 174.903C508.86 174.903 507.438 169.214 498.905 167.792C490.371 166.37 480.28 164.948 477.148 167.792C474.016 170.636 472.594 174.192 470.46 174.192H460.505L444.86 201.924C444.86 201.924 452.683 211.168 450.549 228.234C448.416 245.3 444.86 276.587 444.86 276.587C450.561 284.176 455.56 292.268 459.794 300.764C466.905 314.985 515.971 313.563 513.127 288.675C513.127 288.675 509.571 282.276 510.994 276.587C512.416 270.898 516.683 232.5 516.683 232.5L533.038 189.124C533.038 189.124 510.283 177.747 508.86 174.903Z" fill="#55536E"/>
        <path d="M528.06 188.413H533.038C533.038 188.413 535.883 204.768 535.172 214.723C534.46 224.678 534.46 248.144 534.46 248.144C534.46 248.144 537.305 253.832 536.594 258.81C535.883 263.787 534.46 277.298 534.46 277.298C534.46 277.298 533.749 296.497 520.238 286.542C520.238 286.542 515.972 284.408 518.105 275.164C520.238 265.92 516.683 255.965 516.683 255.965C516.683 255.965 518.816 249.566 518.105 245.299C517.394 241.033 514.549 227.522 514.549 227.522L528.06 188.413Z" fill="#55536E"/>
        <path d="M464.06 176.325L460.505 174.192C460.505 174.192 455.527 172.058 448.416 174.192C441.305 176.325 437.749 175.614 434.905 174.903C432.06 174.192 434.194 167.081 434.194 167.081C434.194 167.081 428.505 157.126 422.816 162.814C417.127 168.503 417.127 179.88 417.127 179.88C417.127 179.88 413.571 186.991 426.371 191.257C439.171 195.524 444.86 201.924 444.86 201.924H459.082L464.06 176.325Z" fill="#55536E"/>
        <path d="M490.282 161.497C490.26 160.863 490.055 160.248 489.693 159.727C489.33 159.206 488.824 158.801 488.237 158.56C487.452 158.293 486.635 158.132 485.807 158.08C483.385 157.768 480.894 156.88 479.484 155.03C477.606 152.567 478.119 149.122 476.614 146.448C475.914 145.395 475.147 144.388 474.319 143.433C471.692 139.918 471.229 135.429 470.99 131.16C470.872 130.294 470.972 129.413 471.279 128.595C471.73 127.86 472.276 127.187 472.902 126.593C473.963 125.36 474.535 123.782 474.511 122.155C474.434 118.849 479.166 116.626 482.517 115.484C485.868 114.342 489.502 114.161 493.073 114.112C495.125 114.084 497.244 114.109 499.13 114.858C500.215 115.33 501.236 115.937 502.167 116.666C506.121 119.561 509.835 123.118 511.162 127.622C511.682 129.677 511.925 131.793 511.882 133.913C511.945 134.572 511.849 135.236 511.601 135.85C511.126 136.804 510.008 137.32 509.284 138.129C507.934 139.641 508.174 141.827 508.003 143.782C507.784 145.799 507.094 147.736 505.99 149.437C504.885 151.138 503.396 152.556 501.643 153.576C500.915 153.932 500.244 154.396 499.654 154.951C499.209 155.54 498.84 156.184 498.557 156.866C497.134 159.594 493.551 161.401 490.282 161.497Z" fill="#3F3D56"/>
        <path d="M136.959 7.58789L127.487 12.8349L137.588 9.27243L136.959 7.58789Z" fill="#79758C"/>
        <path d="M141.227 12.7508C142.615 12.2999 143.004 9.66752 142.096 6.87113C141.188 4.07473 139.326 2.17328 137.938 2.62412C136.55 3.07496 136.161 5.70736 137.069 8.50375C137.978 11.3001 139.839 13.2016 141.227 12.7508Z" fill="#3F3D56"/>
        <path d="M148.982 7.20333C150.029 6.8632 150.358 4.98684 149.717 3.01235C149.075 1.03787 147.707 -0.28704 146.659 0.053089C145.612 0.393218 145.283 2.26958 145.924 4.24406C146.566 6.21855 147.935 7.54346 148.982 7.20333Z" fill="#3F3D56"/>
        <path d="M140.192 4.61382L146.475 2.34619L147.81 6.04451L141.73 10.1517L140.192 4.61382Z" fill="#3F3D56"/>
        <path d="M200.959 272.109L191.487 277.356L201.588 273.793L200.959 272.109Z" fill="#79758C"/>
        <path d="M205.228 277.272C206.616 276.821 207.005 274.189 206.096 271.392C205.188 268.596 203.326 266.694 201.938 267.145C200.55 267.596 200.161 270.228 201.07 273.025C201.978 275.821 203.84 277.723 205.228 277.272Z" fill="#3F3D56"/>
        <path d="M212.982 271.724C214.029 271.384 214.358 269.508 213.717 267.533C213.075 265.559 211.707 264.234 210.659 264.574C209.612 264.914 209.283 266.791 209.924 268.765C210.566 270.74 211.935 272.064 212.982 271.724Z" fill="#3F3D56"/>
        <path d="M204.192 269.134L210.475 266.867L211.81 270.565L205.729 274.672L204.192 269.134Z" fill="#3F3D56"/>
    </g>
    <defs>
        <clipPath id="clip0">
            <rect width="592" height="482" fill="white"/>
        </clipPath>
    </defs>
</svg>
