<svg width="41" height="40" viewBox="0 0 41 40" fill="none" 
    xmlns="http://www.w3.org/2000/svg">
    <rect opacity="0.15" width="41" height="40" rx="10" fill="#85D9BF"/>
    <path fill-rule="evenodd" clip-rule="evenodd" d="M32.0937 22.0604L29.7323 22.3698C29.5594 22.9271 29.3354 23.4677 29.0635 23.9865L30.5073 25.8802C30.8229 26.2948 30.7854 26.8771 30.4198 27.2469L28.3125 29.3677C27.9479 29.7333 27.3729 29.7771 26.9552 29.4719L25.0156 28.0448C24.4896 28.324 23.9417 28.5521 23.375 28.7271L23.0604 31.0958C22.9917 31.6135 22.55 32 22.0281 32H18.9719C18.4479 32 18.0052 31.6115 17.9385 31.0917L17.6344 28.7354C17.0802 28.5635 16.5406 28.3427 16.024 28.0719L14.1167 29.5115C13.7031 29.824 13.124 29.7844 12.7552 29.4187L10.6333 27.3135C10.2677 26.95 10.2229 26.375 10.526 25.9594L11.9417 24.0208C11.6573 23.4844 11.425 22.9271 11.2479 22.3521L8.9125 22.0615C8.39167 21.9958 8 21.5542 8 21.0281V17.9719C8 17.4469 8.38958 17.0052 8.91042 16.9385L11.2646 16.6396C11.4437 16.0708 11.674 15.5208 11.9573 14.9927L10.5 13.1302C10.1771 12.7156 10.2125 12.1271 10.5823 11.7531L12.6885 9.63333C13.0573 9.2625 13.6437 9.22188 14.0583 9.5375L15.974 10.9948C16.5031 10.7146 17.0552 10.4854 17.6271 10.3083L17.9396 7.90729C18.0062 7.38854 18.4479 7 18.9719 7H22.0281C22.5552 7 22.9979 7.39271 23.0615 7.91562L23.3542 10.3062C23.9031 10.476 24.4354 10.6958 24.949 10.9625L26.8812 9.48958C27.2927 9.17708 27.875 9.21354 28.2469 9.58125L30.3677 11.6885C30.7365 12.0552 30.7781 12.6375 30.4646 13.0531L29.0208 14.9729C29.3042 15.5021 29.5375 16.0562 29.7187 16.6281L32.0937 16.9396C32.6125 17.0062 33 17.449 33 17.9719V21.0281C33 21.551 32.6125 21.9927 32.0937 22.0604ZM30.9167 18.8865L28.7615 18.6042C28.3312 18.5479 27.9802 18.2302 27.8823 17.8073C27.6875 16.9729 27.3552 16.1844 26.8937 15.4625C26.6583 15.0969 26.6771 14.6219 26.9385 14.274L28.2542 12.525L27.4208 11.6979L25.6635 13.0365C25.3208 13.2979 24.8521 13.3198 24.4844 13.0937C23.7656 12.649 22.9896 12.3302 22.175 12.1458C21.7458 12.0479 21.425 11.6927 21.3719 11.2562L21.1062 9.08333H19.8875L19.6031 11.2677C19.5469 11.7 19.2271 12.0521 18.801 12.1479C17.9667 12.3385 17.176 12.6667 16.45 13.124C16.0813 13.3573 15.6115 13.3365 15.2646 13.0719L13.524 11.749L12.7073 12.5708L14.0333 14.2646C14.3052 14.6135 14.3281 15.0958 14.0906 15.4677C13.626 16.1948 13.2937 16.9865 13.1021 17.8198C13.0031 18.2448 12.651 18.5635 12.2177 18.6187L10.0833 18.8896V20.1083L12.2021 20.3719C12.6375 20.425 12.9937 20.7479 13.0896 21.1771C13.275 22.0062 13.6042 22.799 14.0646 23.5323C14.2917 23.8937 14.275 24.3562 14.024 24.701L12.7365 26.4656L13.5812 27.3042L15.3156 25.9958C15.6594 25.7354 16.1271 25.7156 16.4927 25.9427C17.2125 26.3896 17.9917 26.7094 18.8083 26.8937C19.2344 26.9906 19.5562 27.3437 19.6115 27.7771L19.8875 29.9167H21.1156L21.401 27.7667C21.4583 27.3344 21.7781 26.9854 22.201 26.8885C23.026 26.699 23.8104 26.374 24.5302 25.9208C24.8927 25.6927 25.3573 25.7104 25.7021 25.9635L27.4677 27.2615L28.301 26.4219L26.9865 24.699C26.724 24.3542 26.7021 23.8823 26.9323 23.5146C27.3823 22.7958 27.7062 22.0156 27.8917 21.1958C27.9875 20.7708 28.3396 20.45 28.7719 20.3937L30.9167 20.1135V18.8865ZM20.5 24.7229C17.6281 24.7229 15.2917 22.3854 15.2917 19.5146C15.2917 16.6427 17.6281 14.3062 20.5 14.3062C23.3719 14.3062 25.7083 16.6427 25.7083 19.5146C25.7083 22.3854 23.3719 24.7229 20.5 24.7229ZM20.5 16.3885C18.7771 16.3885 17.375 17.7906 17.375 19.5146C17.375 21.2375 18.7771 22.6396 20.5 22.6396C22.2229 22.6396 23.625 21.2375 23.625 19.5146C23.625 17.7906 22.2229 16.3885 20.5 16.3885Z" fill="#85D9BF"/>
</svg>
