<svg width="128" height="128" viewBox="0 0 128 128" fill="none" 
    xmlns="http://www.w3.org/2000/svg">
    <path fill-rule="evenodd" clip-rule="evenodd" d="M-2.92063e-06 64C-2.92063e-06 64.1541 0.000545078 64.3082 0.00162703 64.462L-2.92063e-06 64.4604V128H24L24 64.2878L24.001 64.2888C24.0003 64.1926 24 64.0963 24 64C24 41.9086 41.9086 24 64 24C86.0914 24 104 41.9086 104 64C104 85.9006 86.3994 103.69 64.5715 103.996L64.5755 104H45V128H64.9209L64.9143 127.994C99.839 127.505 128 99.0409 128 64C128 28.6538 99.3462 0 64 0C28.6538 0 -2.92063e-06 28.6538 -2.92063e-06 64ZM45.0005 64.6336C45.0002 64.5891 45 64.5446 45 64.5C45 54.2827 53.2827 46 63.5 46C73.7173 46 82 54.2827 82 64.5C82 74.629 73.8597 82.8568 63.7643 82.9981L63.7662 83H45V64.6331L45.0005 64.6336Z" fill="#182538"/>
</svg>
