<svg width="34" height="34" viewBox="0 0 34 34" fill="none" xmlns="http://www.w3.org/2000/svg">
<circle cx="17" cy="17" r="16.5" fill="#D1EBFF" stroke="#C2E4FF"/>
<path d="M23.1748 16.7981C22.8611 19.4406 20.5666 20.3817 19.574 20.6695C20.0251 20.6652 20.4548 20.5922 20.7728 20.4074C21.8384 19.7844 20.7728 21.1723 20.7728 21.1723L19.1314 21.8297L17.3611 20.7813H17.49L17.3611 20.3516C17.3611 20.3516 18.2076 20.5965 19.1185 20.6609V10.95C19.1185 10.95 18.9724 10.632 19.1185 10.5461C19.2646 10.4645 23.1748 11.0016 23.1748 11.0016C23.1748 11.0016 23.5744 13.4164 23.1748 16.7981Z" fill="url(#paint0_linear)"/>
<path d="M19.9994 26.7711H18.2978L18.8564 25.1984L17.7564 24.1672L18.2892 23.2348L15.8572 22.1348V20.4375L19.1357 21.9199L21.4044 20.893L22.4142 20.4375V21.8512C22.6462 21.993 22.9212 22.1391 23.2521 22.2852C25.5423 23.282 26.956 23.948 27.2052 26.7797H19.9994V26.7711Z" fill="url(#paint1_linear)"/>
<path d="M27.4887 25.2113C27.1278 24.2789 26.32 23.0113 24.5196 22.2852C23.8149 22.0016 23.2262 21.7137 22.7622 21.4344V20.3516C22.7622 20.2356 22.702 20.1281 22.6032 20.0637C22.5043 19.9992 22.3797 19.9906 22.2766 20.0379L21.7911 20.257C21.9973 20.111 22.1993 19.9434 22.384 19.7543C23.0629 19.0668 23.4497 18.2461 23.6559 17.6746C23.7934 17.2922 23.8665 16.8926 23.8665 16.4801V10.5805C23.8665 10.4688 23.8106 10.3613 23.7161 10.2969C23.6215 10.2324 23.5055 10.2195 23.3981 10.2582C22.6547 10.5418 21.9286 10.3613 21.1637 10.168C20.1625 9.91877 19.0282 9.63517 17.8293 10.4817C17.6747 10.5934 17.636 10.8082 17.7477 10.9629C17.8594 11.1176 18.0743 11.1563 18.229 11.0445C19.17 10.3785 20.0165 10.5891 20.9961 10.834C21.6922 11.0102 22.4098 11.1863 23.179 11.0317V16.4758C23.179 16.8067 23.1231 17.1289 23.0114 17.434C22.6204 18.5082 21.6235 20.3172 19.3204 20.3172C17.0602 20.3172 16.0504 18.6457 15.6465 17.6488C15.5133 17.318 15.4489 16.9699 15.4489 16.6047V11.1004C15.4489 10.3098 15.9172 9.7426 16.3083 9.40314C17.1762 8.65119 18.504 8.30314 19.7715 8.49221C20.2098 8.55666 20.6094 8.67267 20.9961 8.7801C21.9629 9.0551 22.8782 9.31291 24.1071 8.80158C24.2833 8.72853 24.3649 8.52658 24.2918 8.35041C24.2188 8.17424 24.0168 8.0926 23.8407 8.16564C22.8309 8.58674 22.1047 8.38049 21.1809 8.11838C20.7727 8.00236 20.3516 7.88205 19.8704 7.8133C18.4137 7.59416 16.8711 8.00236 15.8528 8.88322C15.1438 9.49338 14.7528 10.2797 14.7528 11.1004V16.609C14.7528 17.0602 14.8344 17.4985 15.002 17.9067C15.2168 18.4481 15.6208 19.2215 16.3083 19.8617C17.1247 20.6223 18.1344 21.0047 19.3118 21.0047C19.6899 21.0047 20.0465 20.9617 20.386 20.8801L19.127 21.4473L15.9903 20.0293C15.8829 19.982 15.7583 19.9906 15.6637 20.0551C15.5649 20.1195 15.5047 20.227 15.5047 20.343V21.6664C15.1223 21.8684 14.6754 22.0746 14.1727 22.2766C12.3723 23.0028 11.5645 24.2703 11.2036 25.2028C10.8126 26.2125 10.8469 27.0547 10.8512 27.0891C10.8598 27.2738 11.0102 27.4156 11.195 27.4156C11.1993 27.4156 11.2079 27.4156 11.2122 27.4156C11.4012 27.407 11.5473 27.2438 11.5387 27.0547C11.5387 27.0246 11.4313 24.1242 14.4348 22.9125C14.8989 22.7235 15.32 22.5344 15.6895 22.3453C15.6981 22.3496 15.7024 22.3539 15.711 22.3582L17.7993 23.3035L17.4555 23.9094C17.3782 24.0469 17.404 24.2231 17.52 24.3305L18.4567 25.207L17.9754 26.5692C17.9583 26.625 17.9497 26.6809 17.9583 26.7324H12.4583C12.2692 26.7324 12.1145 26.8871 12.1145 27.0762C12.1145 27.2653 12.2692 27.4199 12.4583 27.4199H27.4973C27.6821 27.4199 27.8325 27.2781 27.8411 27.0934C27.8411 27.0633 27.8797 26.2254 27.4887 25.2113ZM19.9047 22.8094H19.475V22.0574L22.0704 20.8844V21.8297L19.9047 22.8094ZM16.1965 20.8844L18.7875 22.0574V22.8094H18.3579L16.1922 21.834V20.8844H16.1965ZM18.4868 23.4969H19.7801L20.0766 24.0211L19.1829 24.8547L19.1313 24.902L18.186 24.0168L18.4868 23.4969ZM19.0282 25.7012C19.0325 25.7012 19.0368 25.7055 19.0454 25.7055C19.0497 25.7055 19.054 25.7098 19.0583 25.7098C19.0625 25.7098 19.0711 25.7141 19.0754 25.7141C19.0797 25.7141 19.084 25.7141 19.0883 25.7141C19.0926 25.7141 19.1012 25.7141 19.1055 25.7184C19.1098 25.7184 19.1141 25.7184 19.1184 25.7184C19.1227 25.7184 19.127 25.7184 19.1313 25.7184H19.1356C19.1399 25.7184 19.1442 25.7184 19.1485 25.7184C19.1571 25.7184 19.1614 25.7184 19.17 25.7184C19.1743 25.7184 19.1786 25.7184 19.1829 25.7184C19.1915 25.7184 19.1958 25.7184 19.2043 25.7141C19.2086 25.7141 19.2129 25.7141 19.2172 25.7098C19.2258 25.7098 19.2301 25.7055 19.2387 25.7055C19.243 25.7055 19.2473 25.7012 19.2473 25.7012C19.2559 25.6969 19.2602 25.6969 19.2688 25.6926H19.2731L19.5137 26.3457H18.7918L19.0196 25.7012C19.0196 25.6969 19.0239 25.7012 19.0282 25.7012ZM20.3387 26.7367C20.3473 26.6809 20.343 26.6207 20.3215 26.5692L19.8188 25.2028L20.7426 24.3348C20.8586 24.2274 20.8844 24.0512 20.8071 23.9137L20.4633 23.3078L22.5516 22.3625C22.6247 22.3281 22.6805 22.2723 22.7192 22.2035C23.1532 22.4442 23.6688 22.6848 24.2575 22.9211C25.5079 23.4281 26.3758 24.2703 26.8356 25.4348C27.0418 25.959 27.1149 26.436 27.1407 26.7367H20.3387Z" fill="#272643"/>
<path d="M26.0276 14.8687H26.7323V15.5734H26.0276V14.8687Z" fill="#ABDCFF"/>
<path d="M26.0276 16.5875H26.7323V17.2922H26.0276V16.5875Z" fill="#0396FF"/>
<path d="M26.0276 8.81015H26.7323V13.7258H26.0276V8.81015Z" fill="#ABDCFF"/>
<path d="M9.10669 17.8207C9.10669 18.693 8.39771 19.402 7.52544 19.402C7.33638 19.402 7.18169 19.2473 7.18169 19.0582C7.18169 18.8692 7.33638 18.7145 7.52544 18.7145C8.01528 18.7145 8.41919 18.3149 8.41919 17.8207C8.41919 17.6317 8.57388 17.477 8.76294 17.477C8.952 17.477 9.10669 17.6317 9.10669 17.8207ZM10.9114 18.7145C10.4215 18.7145 10.0176 18.3149 10.0176 17.8207C10.0176 17.6317 9.86294 17.477 9.67388 17.477C9.48481 17.477 9.33013 17.6317 9.33013 17.8207C9.33013 18.693 10.0391 19.402 10.9114 19.402C11.1004 19.402 11.2551 19.2473 11.2551 19.0582C11.2551 18.8692 11.1004 18.7145 10.9114 18.7145ZM10.9114 19.6254C10.0391 19.6254 9.33013 20.3344 9.33013 21.2067C9.33013 21.3957 9.48481 21.5504 9.67388 21.5504C9.86294 21.5504 10.0176 21.3957 10.0176 21.2067C10.0176 20.7168 10.4172 20.3129 10.9114 20.3129C11.1004 20.3129 11.2551 20.1582 11.2551 19.9692C11.2551 19.7801 11.1004 19.6254 10.9114 19.6254ZM7.52544 19.6254C7.33638 19.6254 7.18169 19.7801 7.18169 19.9692C7.18169 20.1582 7.33638 20.3129 7.52544 20.3129C8.01528 20.3129 8.41919 20.7125 8.41919 21.2067C8.41919 21.3957 8.57388 21.5504 8.76294 21.5504C8.952 21.5504 9.10669 21.3957 9.10669 21.2067C9.10669 20.3344 8.39771 19.6254 7.52544 19.6254ZM13.2575 14.4133H8.91333C8.72427 14.4133 8.56958 14.568 8.56958 14.757C8.56958 14.9461 8.72427 15.1008 8.91333 15.1008H13.2575C13.4465 15.1008 13.6012 14.9461 13.6012 14.757C13.6012 14.568 13.4465 14.4133 13.2575 14.4133ZM7.33638 13.2145C7.33638 13.4035 7.49106 13.5582 7.68013 13.5582H10.5547C10.7438 13.5582 10.8985 13.4035 10.8985 13.2145C10.8985 13.0254 10.7438 12.8707 10.5547 12.8707H7.68013C7.49106 12.8707 7.33638 13.0254 7.33638 13.2145ZM7.49106 9.73829C7.68013 9.73829 7.83481 9.58361 7.83481 9.39454V9.22697H8.00239C8.19146 9.22697 8.34614 9.07228 8.34614 8.88322C8.34614 8.69415 8.19146 8.53947 8.00239 8.53947H7.83481V8.37189C7.83481 8.18282 7.68013 8.02814 7.49106 8.02814C7.302 8.02814 7.14731 8.18282 7.14731 8.37189V8.53947H6.97974C6.79067 8.53947 6.63599 8.69415 6.63599 8.88322C6.63599 9.07228 6.79067 9.22697 6.97974 9.22697H7.14731V9.39454C7.14731 9.58361 7.302 9.73829 7.49106 9.73829Z" fill="#272643"/>
<defs>
<linearGradient id="paint0_linear" x1="23.4751" y1="16.1838" x2="17.3879" y2="16.1838" gradientUnits="userSpaceOnUse">
<stop stop-color="#ABDCFF"/>
<stop offset="1" stop-color="#0396FF"/>
</linearGradient>
<linearGradient id="paint1_linear" x1="21.5275" y1="27.6728" x2="21.5275" y2="20.7877" gradientUnits="userSpaceOnUse">
<stop stop-color="#ABDCFF"/>
<stop offset="1" stop-color="#0396FF"/>
</linearGradient>
</defs>
</svg>
