<svg width="34" height="34" viewBox="0 0 34 34" fill="none" xmlns="http://www.w3.org/2000/svg">
<circle cx="17" cy="17" r="16.5" fill="#FFEEE5" stroke="#FFCDBE"/>
<path d="M23.4194 22.0102H14.6753C14.7741 21.5117 14.8644 20.9359 14.9546 20.3043C15.4358 16.9785 16.0976 12.4238 20.055 12.4238H20.0593C22.2249 14.091 22.7405 17.6102 23.1144 20.1668C23.2003 20.7512 23.2991 21.4516 23.4194 22.0102Z" fill="url(#paint0_linear)"/>
<path d="M25.5554 22.7277V23.9265C25.5554 24.1156 25.4007 24.2703 25.2116 24.2703H19.6815C19.4796 24.9449 18.8651 26.1867 17.0647 26.1867C15.2601 26.1867 14.6456 24.9449 14.4479 24.2703H8.91357C8.72451 24.2703 8.56982 24.1156 8.56982 23.9265V22.9683C8.56982 22.7793 8.72451 22.6246 8.91357 22.6246C9.10264 22.6246 9.25732 22.7793 9.25732 22.9683V23.5828H14.7144C14.8776 23.5828 15.0194 23.6988 15.0538 23.8621C15.1483 24.3562 15.5351 25.4992 17.0647 25.4992C18.5944 25.4992 18.9812 24.3519 19.0757 23.8621C19.1058 23.6988 19.2476 23.5828 19.4151 23.5828H24.8722V22.9597L23.2909 22.3281C23.1835 22.2851 23.1062 22.1906 23.0804 22.0746C23.0116 21.7265 22.93 21.2926 22.771 20.2097V20.2011C22.5562 18.7316 22.294 16.9011 21.6839 15.3414C20.9921 13.5711 19.9995 12.4926 18.6503 12.0414C18.5386 12.0027 18.4526 11.9125 18.4226 11.7965C18.3968 11.6804 18.4269 11.5601 18.5128 11.4742C18.8995 11.0832 19.1144 10.5676 19.1144 10.0176C19.1144 8.88747 18.1948 7.96364 17.0604 7.96364C15.9261 7.96364 15.0065 8.88318 15.0065 10.0176C15.0065 10.5633 15.2214 11.0832 15.6081 11.4742C15.6897 11.5601 15.7241 11.6804 15.6983 11.7965C15.6726 11.9125 15.5866 12.007 15.4706 12.0414C14.1214 12.4883 13.1288 13.5668 12.437 15.3414C11.8269 16.9011 11.5647 18.7316 11.3499 20.2011L11.337 20.2785C11.2726 20.7254 11.1995 21.2152 11.1179 21.6621H22.2124C22.4015 21.6621 22.5562 21.8168 22.5562 22.0058C22.5562 22.1949 22.4015 22.3496 22.2124 22.3496H10.7097C10.6065 22.3496 10.5077 22.3023 10.4433 22.2207C10.3788 22.139 10.353 22.0359 10.3745 21.9328C10.4862 21.4086 10.5808 20.7554 10.6667 20.1797L10.6796 20.1023C10.8987 18.5984 11.1694 16.725 11.8054 15.0922C12.4972 13.3176 13.4812 12.1617 14.8046 11.5687C14.4952 11.1133 14.3276 10.5804 14.3276 10.0218C14.3276 8.50935 15.5565 7.28044 17.069 7.28044C18.5815 7.28044 19.8104 8.50935 19.8104 10.0218C19.8104 10.5804 19.6429 11.1176 19.3335 11.5687C20.6569 12.1617 21.6409 13.3176 22.3327 15.0922C22.9687 16.725 23.2394 18.5984 23.4585 20.1023V20.1109C23.5874 20.9961 23.6647 21.4386 23.7249 21.7566L25.3448 22.4054C25.4694 22.4613 25.5554 22.5859 25.5554 22.7277ZM17.0647 25.2285C18.2292 25.2285 18.6245 24.4722 18.7577 24.0211C18.8093 23.8406 18.7062 23.6472 18.5257 23.5957C18.3452 23.5441 18.1519 23.6472 18.1003 23.8277C17.9585 24.3047 17.6233 24.541 17.069 24.541C16.5147 24.541 16.1796 24.309 16.0378 23.8277C15.9862 23.6472 15.7929 23.5398 15.6124 23.5957C15.4319 23.6472 15.3245 23.8406 15.3804 24.0211C15.505 24.4722 15.9003 25.2285 17.0647 25.2285Z" fill="#6A1900"/>
<path d="M8.44072 25.4777C8.57393 25.6109 8.57393 25.8301 8.44072 25.9633L7.62861 26.7754C7.55986 26.8441 7.47393 26.8742 7.38369 26.8742C7.29346 26.8742 7.20752 26.8398 7.13877 26.7754C7.00557 26.6422 7.00557 26.423 7.13877 26.2898L7.95088 25.4777C8.08838 25.3445 8.30752 25.3445 8.44072 25.4777ZM27.2567 17.3652H24.3435C24.1544 17.3652 23.9997 17.5199 23.9997 17.709C23.9997 17.898 24.1544 18.0527 24.3435 18.0527H27.2567C27.4458 18.0527 27.6005 17.898 27.6005 17.709C27.6005 17.5199 27.4458 17.3652 27.2567 17.3652ZM25.5767 9.55781C25.4435 9.42461 25.2243 9.42461 25.0911 9.55781L23.0329 11.616C22.8997 11.7492 22.8997 11.9684 23.0329 12.1016C23.1017 12.1703 23.1876 12.2004 23.2778 12.2004C23.3638 12.2004 23.454 12.166 23.5228 12.1016L25.581 10.0434C25.7142 9.91016 25.7142 9.69102 25.5767 9.55781ZM23.9868 14.4305C23.9396 14.2199 24.0728 14.0137 24.2833 13.9707C24.3864 13.9492 24.4896 13.9664 24.5755 14.0223C24.6614 14.0781 24.7216 14.1641 24.7431 14.2672C24.7646 14.3703 24.7474 14.4734 24.6915 14.5594C24.6356 14.6453 24.5497 14.7055 24.4466 14.727C24.4208 14.7312 24.3907 14.7355 24.3649 14.7355C24.2919 14.7355 24.2188 14.7141 24.1544 14.6754C24.0685 14.6195 24.0083 14.5336 23.9868 14.4305ZM9.77705 13.7902C9.64385 13.657 9.42471 13.657 9.2915 13.7902L9.17119 13.9105L9.05088 13.7902C8.91768 13.657 8.69854 13.657 8.56533 13.7902C8.43213 13.9234 8.43213 14.1426 8.56533 14.2758L8.68564 14.3961L8.56533 14.5164C8.43213 14.6496 8.43213 14.8687 8.56533 15.002C8.63408 15.0707 8.72002 15.1008 8.81025 15.1008C8.90049 15.1008 8.98643 15.0664 9.05518 15.002L9.17549 14.8816L9.2958 15.002C9.36455 15.0707 9.45049 15.1008 9.54072 15.1008C9.63096 15.1008 9.71689 15.0664 9.78564 15.002C9.91885 14.8687 9.91885 14.6496 9.78564 14.5164L9.66533 14.3961L9.78564 14.2758C9.91025 14.1426 9.91025 13.9234 9.77705 13.7902ZM24.8204 25.25C24.6872 25.1168 24.4681 25.1168 24.3349 25.25C24.2017 25.3832 24.2017 25.6023 24.3349 25.7355L25.6024 27.0031C25.6712 27.0719 25.7571 27.102 25.8474 27.102C25.9333 27.102 26.0235 27.0676 26.0923 27.0031C26.2255 26.8699 26.2255 26.6508 26.0923 26.5176L24.8204 25.25ZM26.4274 20.8199C26.4833 20.9059 26.5005 21.009 26.479 21.1121C26.4403 21.2926 26.2771 21.4172 26.1009 21.4172C26.0751 21.4172 26.045 21.4129 26.0192 21.4086C25.8087 21.3613 25.6755 21.1551 25.7228 20.9488C25.7442 20.8457 25.8044 20.7598 25.8903 20.7039C25.9763 20.648 26.0794 20.6309 26.1825 20.6523C26.2856 20.6695 26.3716 20.7297 26.4274 20.8199ZM12.0673 10.4859H11.8997V10.3184C11.8997 10.1293 11.745 9.97461 11.556 9.97461C11.3669 9.97461 11.2122 10.1293 11.2122 10.3184V10.4859H11.0446C10.8556 10.4859 10.7009 10.6406 10.7009 10.8297C10.7009 11.0187 10.8556 11.1734 11.0446 11.1734H11.2122V11.341C11.2122 11.5301 11.3669 11.6848 11.556 11.6848C11.745 11.6848 11.8997 11.5301 11.8997 11.341V11.1734H12.0673C12.2563 11.1734 12.411 11.0187 12.411 10.8297C12.411 10.6406 12.2563 10.4859 12.0673 10.4859ZM23.063 8.09258C23.063 8.72422 22.5474 9.23984 21.9157 9.23984C21.2841 9.23984 20.7685 8.72422 20.7685 8.09258C20.7685 7.46094 21.2841 6.94531 21.9157 6.94531C22.5474 6.94531 23.063 7.46094 23.063 8.09258ZM22.3755 8.09258C22.3755 7.83906 22.1692 7.63281 21.9157 7.63281C21.6622 7.63281 21.456 7.83906 21.456 8.09258C21.456 8.34609 21.6622 8.55234 21.9157 8.55234C22.1692 8.55234 22.3755 8.3418 22.3755 8.09258ZM8.85752 17.709C8.85752 18.3406 8.34189 18.8562 7.71025 18.8562C7.07861 18.8562 6.56299 18.3406 6.56299 17.709C6.56299 17.0773 7.07861 16.5617 7.71025 16.5617C8.34189 16.5617 8.85752 17.0773 8.85752 17.709ZM8.17002 17.709C8.17002 17.4555 7.96377 17.2492 7.71025 17.2492C7.45674 17.2492 7.25049 17.4555 7.25049 17.709C7.25049 17.9625 7.45674 18.1687 7.71025 18.1687C7.96377 18.1687 8.17002 17.9625 8.17002 17.709Z" fill="#6A1900"/>
<path d="M7.13867 7.07849L9.62227 9.56208L7.13867 12.0457V7.07849Z" fill="#FFCDBE"/>
<path d="M12.9737 26.0664V27.0031H10.5288V26.0664H12.9737Z" fill="#FFCDBE"/>
<defs>
<linearGradient id="paint0_linear" x1="19.0101" y1="23.0197" x2="19.5002" y2="9.90956" gradientUnits="userSpaceOnUse">
<stop stop-color="#FFCDBE"/>
<stop offset="1" stop-color="#FF7B53"/>
</linearGradient>
</defs>
</svg>
