<svg width="75" height="72" viewBox="0 0 75 72" fill="none" 
    xmlns="http://www.w3.org/2000/svg">
    <g opacity="0.5">
        <path fill-rule="evenodd" clip-rule="evenodd" d="M71.875 50.1808H66.7344L67.0906 50.763C67.1813 50.9164 67.2594 51.0792 67.3281 51.2451C68.375 53.931 68.8719 59.7474 63.2563 62.571C61.3281 63.5415 59.65 63.9108 58.2344 63.9108C57.4438 63.9108 56.7656 63.7731 56.1406 63.5821C55.4594 64.4775 54.6312 65.2882 53.5312 65.8924C51.3125 67.1039 49.4094 67.5578 47.8375 67.5578C46.7125 67.5578 45.7906 67.298 45 66.9442C44.4219 67.4921 43.7531 68.018 42.8563 68.4688C40.9156 69.4454 39.1656 69.8086 37.6625 69.8086C36 69.8086 34.6719 69.3484 33.675 68.7849C33.0344 69.4423 32.275 70.0935 31.2219 70.6851C29.5625 71.6211 27.9937 71.9999 26.5688 71.9999C23.3844 71.9999 20.9281 70.106 19.7906 68.2903L11.1969 56.0253C10.7219 55.5056 8.36562 53.3175 6.325 53.3175H3.125C1.4 53.3175 0 51.915 0 50.187C0 49.9428 0.028125 49.7081 0.078125 49.4858V12.5435C0.078125 10.8124 1.47812 9.40998 3.20312 9.40998H12.5656C14.5938 9.40998 15.7844 9.02806 17.5844 8.4458C20.5656 7.48476 24.2781 6.2858 32.9219 6.2858C33.1594 6.2858 33.3687 6.37033 33.5906 6.42041C38.0844 1.68093 40.0969 0.00302124 44.4437 0.00302124H48.8563C57.1375 0.00302124 59.6938 1.47119 64.2531 4.5265C70.4313 8.66493 72.875 9.57589 72.9 9.58528C74.1375 10.0329 75 11.2256 75 12.5435V47.0503C75 48.7783 73.6031 50.1808 71.875 50.1808ZM12.5656 15.6708H6.32813V47.0535C11.6 47.0566 15.6844 51.6708 16.1313 52.1968L24.9937 64.8249C26.0969 66.3964 27.6562 65.5136 28.1625 65.2288C28.8656 64.8312 29.2969 64.4023 29.55 63.9766L21.2812 52.5004C20.2687 51.1011 20.5844 49.1446 21.9844 48.1303C23.3781 47.1161 25.3312 47.4322 26.3469 48.8347L36.8906 63.4663C37.1375 63.5446 38.1438 63.8263 40.0531 62.8715C40.4344 62.6806 40.6562 62.4959 40.8125 62.33L32.6063 50.1307C31.6406 48.6969 32.0188 46.7498 33.45 45.7856C34.875 44.8152 36.8219 45.194 37.7875 46.6308L47.6531 61.2907C47.9937 61.3533 48.9375 61.2688 50.5375 60.3954C51.1906 60.0354 51.4219 59.6065 51.4344 58.9992L43.975 47.7609C43.0219 46.3209 43.4125 44.3769 44.85 43.419C46.2781 42.4674 48.2219 42.8555 49.1813 44.2955L58.0375 57.6437C58.3531 57.6875 59.1438 57.6343 60.4563 56.9738C62.1344 56.1286 61.7937 54.4162 61.5812 53.7401L43.4406 23.7787C41.5969 25.4315 39.0812 27.41 36.4437 28.6653C30.3906 31.5578 25.8781 31.9616 22.6437 29.9206C20.2312 28.3929 18.9062 25.6225 18.9062 22.1164C18.9062 19.515 20.5906 18.2848 22.2156 17.0983C23.3406 16.2782 25.0344 15.0228 27.4281 12.7689C23.5781 13.107 21.4312 13.7832 19.5 14.4062C17.4812 15.0573 15.575 15.6708 12.5656 15.6708ZM68.75 14.5564C67.15 13.7425 64.5969 12.29 60.7781 9.73241C56.9094 7.13728 55.6063 6.26076 48.8563 6.26076H44.4437C42.4531 6.26076 41.9375 6.66146 36.5563 12.3902L35.1188 13.9147C30.55 18.7606 27.6375 20.8862 25.8969 22.1571C25.6156 22.3637 25.375 22.5296 25.1781 22.6768C25.2344 23.3592 25.4188 24.2701 25.9813 24.627C26.8906 25.1999 29.4125 25.0872 33.7594 23.0148C37.7219 21.1241 41.7156 16.7321 41.7531 16.6851C42.4156 15.9526 43.3688 15.5769 44.3688 15.6677C45.3531 15.7616 46.2344 16.3157 46.7469 17.1609L62.9469 43.9168H68.75V14.5564Z" fill="#182538"/>
    </g>
</svg>
