<svg width="100" height="100" viewBox="0 0 100 100" fill="none" 
    xmlns="http://www.w3.org/2000/svg">
    <path fill-rule="evenodd" clip-rule="evenodd" d="M99.0159 6.90212L48.9845 65.2013C48.2305 66.0797 47.1373 66.6026 45.9771 66.6486C45.9227 66.6528 45.8724 66.6528 45.818 66.6528C44.7164 66.6528 43.6525 66.2136 42.8693 65.4314L22.0232 44.6123C20.3939 42.9893 20.3939 40.3498 22.0232 38.7226C23.6525 37.0996 26.2913 37.0996 27.9164 38.7226L45.5834 56.3625L92.6871 1.48089C94.1866 -0.263441 96.8211 -0.468411 98.5635 1.02912C100.314 2.52665 100.515 5.15361 99.0159 6.90212ZM60.7918 19.3969C56.5949 17.5187 51.975 16.6821 45.818 16.6821C25.1269 16.6821 8.29337 33.498 8.29337 54.158C8.29337 74.8265 25.1269 91.6382 45.818 91.6382C66.5091 91.6382 83.3426 74.8265 83.3426 54.158C83.3426 50.318 82.7771 46.9757 81.4494 42.9809C80.7206 40.8016 81.9059 38.4423 84.0881 37.7145C86.2661 36.995 88.6326 38.1746 89.3572 40.354C90.9656 45.1812 91.6819 49.4396 91.6819 54.158C91.6819 79.4153 71.108 99.9666 45.818 99.9666C20.5279 99.9666 -0.0458984 79.4153 -0.0458984 54.158C-0.0458984 28.9008 20.5279 8.35364 45.818 8.35364C53.1059 8.35364 58.9447 9.44542 64.197 11.7921C66.2997 12.7291 67.2421 15.1929 66.3038 17.2928C65.3614 19.3927 62.9028 20.3339 60.7918 19.3969Z" fill="#85D9BF"/>
</svg>
