<svg width="35" height="35" viewBox="0 0 35 35" fill="none" 
    xmlns="http://www.w3.org/2000/svg">
    <circle cx="17.5" cy="17.5" r="17.5" fill="#182538"/>
    <g clip-path="url(#clip0)">
        <path fill-rule="evenodd" clip-rule="evenodd" d="M15.5287 24.9893C15.3101 24.9893 15.0998 24.9021 14.944 24.748L8.24232 18.0849C7.91645 17.7607 7.91394 17.2338 8.23729 16.9071C8.55981 16.5803 9.08589 16.5787 9.4126 16.902L15.4851 22.9394L26.4792 10.2841C26.7791 9.93732 27.3044 9.90046 27.6512 10.2029C27.9972 10.5053 28.0332 11.0314 27.7316 11.3782L16.1553 24.7028C16.0045 24.877 15.7892 24.98 15.5597 24.9884C15.5496 24.9893 15.5396 24.9893 15.5287 24.9893Z" fill="white"/>
    </g>
    <defs>
        <clipPath id="clip0">
            <rect width="19.9483" height="15" fill="white" transform="translate(8 10)"/>
        </clipPath>
    </defs>
</svg>
